<?xml version="1.0" encoding="UTF-8" standalone="no"?>
<svg
   width="1200pt"
   height="1200pt"
   version="1.1"
   viewBox="0 0 1200 1200"
   id="svg4"
   sodipodi:docname="actions.svg"
   inkscape:version="1.1.1 (3bf5ae0d25, 2021-09-20)"
   xmlns:inkscape="http://www.inkscape.org/namespaces/inkscape"
   xmlns:sodipodi="http://sodipodi.sourceforge.net/DTD/sodipodi-0.dtd"
   xmlns="http://www.w3.org/2000/svg"
   xmlns:svg="http://www.w3.org/2000/svg">
  <defs
     id="defs8" />
  <sodipodi:namedview
     id="namedview6"
     pagecolor="#ffffff"
     bordercolor="#666666"
     borderopacity="1.0"
     inkscape:pageshadow="2"
     inkscape:pageopacity="0.0"
     inkscape:pagecheckerboard="0"
     inkscape:document-units="pt"
     showgrid="false"
     inkscape:zoom="0.545625"
     inkscape:cx="800"
     inkscape:cy="800"
     inkscape:window-width="2560"
     inkscape:window-height="1351"
     inkscape:window-x="2551"
     inkscape:window-y="-9"
     inkscape:window-maximized="1"
     inkscape:current-layer="svg4" />
  <path
     d="m 353.5517,437.52153 c -3.2186,-3.31899 -4.44836,-8.09349 -3.23739,-12.55462 1.21402,-4.46402 4.68985,-7.95873 9.14793,-9.19451 4.45463,-1.23603 9.23547,-0.0314 12.57309,3.17154 l 4.92515,4.93455 20.87377,-19.96066 c 3.39118,-3.228 8.25008,-4.39817 12.73932,-3.07429 4.4923,1.32381 7.93672,4.94395 9.0347,9.49567 1.10111,4.55502 -0.3137,9.34549 -3.70487,12.57309 l -30.13734,28.77611 c -2.47197,2.36533 -5.77217,3.67034 -9.19451,3.63267 -3.42235,-0.0377 -6.69443,-1.41479 -9.1134,-3.83344 l -13.96323,-13.96322 z m 542.06581,-242.51539 50.11085,24.54386 3.61388,-7.1305 c 3.14961,-8.74639 1.7724,-18.48379 -3.6766,-26.0127 -5.45222,-7.52892 -14.27322,-11.87682 -23.56571,-11.61662 -9.29168,0.26351 -17.85256,5.10401 -22.86943,12.92805 l -3.61388,7.28422 z m 31.65918,44.65872 -0.003,-0.003 c -11.8985,0.87841 -22.43657,8.01205 -27.66867,18.73435 l -85.82561,173.4662 c -1.52771,3.09942 -1.76927,6.67877 -0.67133,9.95663 1.09485,3.27819 3.44451,5.9886 6.53132,7.54458 l 9.41456,4.81851 -40.12932,80.21767 c -0.19135,0.34821 -0.36703,0.7027 -0.53016,1.06971 l -27.23259,54.49649 -49.42742,-24.61292 46.65116,-93.97692 c 0.33253,-0.55526 0.62114,-1.13564 0.86894,-1.73482 l 52.47352,-105.70195 c 0.3294,-0.54898 0.61486,-1.12304 0.85641,-1.71595 l 71.4215,-143.77618 43.29748,21.19982 z m -61.58371,146.35407 12.60441,6.17684 57.93851,-115.73247 h -0.0471 c 1.20463,-2.33714 1.06971,-5.14159 -0.35762,-7.3532 -0.69642,-1.06344 -1.66575,-1.91985 -2.80453,-2.48458 l -0.57721,-0.30743 v -0.003 c -1.01012,-0.38585 -2.09244,-0.54898 -3.17154,-0.47056 -1.28309,0.069 -2.5253,0.47998 -3.59509,1.19523 -1.08858,0.71839 -1.96378,1.71595 -2.5347,2.88926 z m 0.89721,29.58562 -12.52972,-6.12978 -11.03278,22.38598 7.93986,4.02794 c 0.52388,0.18509 1.03525,0.39841 1.53084,0.64624 0.55212,0.28547 1.08545,0.60545 1.5905,0.96306 l 1.2423,0.62741 11.24639,-22.45504 z m -11.34357,51.79894 c 3.10256,1.56537 6.69756,1.83834 10.00081,0.75289 3.30019,-1.08232 6.03879,-3.43503 7.60424,-6.53446 l 0.34821,-0.73093 86.35565,-172.5025 v -0.003 c 2.67901,-5.27024 3.91504,-11.15564 3.58561,-17.05911 -0.32939,-5.90396 -2.21474,-11.6134 -5.46474,-16.55398 l -0.26979,-0.41408 15.41841,-30.51078 c 0.26351,-0.49566 0.49566,-1.00699 0.69643,-1.53084 6.31489,-16.93383 3.79899,-35.90028 -6.71644,-50.60073 -10.51542,-14.70046 -27.65019,-23.21074 -45.71637,-22.70319 -18.0694,0.5082 -34.69886,9.96627 -44.37362,25.2313 -0.22272,0.36703 -0.43291,0.74348 -0.62741,1.12616 l -62.53376,125.93953 v -45.80391 c 0,-3.48522 -1.38347,-6.82934 -3.84605,-9.29168 -2.46258,-2.46571 -5.80357,-3.85231 -9.28847,-3.85545 h -162.6085 v -3.33464 c -0.003,-9.07245 -3.60761,-17.77145 -10.02008,-24.18649 l -0.0784,-0.0784 c -6.41841,-6.4372 -15.13653,-10.05702 -24.22744,-10.06024 v 0.0471 l -18.69661,0.4831 c -4.20682,-22.13227 -18.53039,-41.02001 -38.70789,-51.0433 -20.17749,-10.02008 -43.88453,-10.02008 -64.06203,0 -20.17749,10.02249 -34.5013,28.91103 -38.71107,51.04323 l -17.23177,-0.44232 h 0.003 c -0.48624,-0.0596 -0.97558,-0.0878 -1.46498,-0.0878 -9.10377,0.003 -17.8341,3.62014 -24.27162,10.05702 -6.43752,6.43688 -10.05461,15.16785 -10.05702,24.2684 v 3.33465 H 227.7167 c -3.49157,-0.006 -6.84187,1.374 -9.31417,3.83971 -2.47197,2.46571 -3.86171,5.81609 -3.86171,9.30774 v 745.32641 c 0.009,3.4852 1.4054,6.8231 3.87424,9.2797 2.47197,2.4594 5.8161,3.8334 9.30132,3.8271 h 572.69544 c 3.48522,-0 6.82622,-1.3897 9.28847,-3.8523 2.46258,-2.4657 3.84605,-5.8067 3.84605,-9.2917 V 543.85683 l 38.90542,-77.84938 2.77626,1.39601 z m -111.30748,143.31841 -5.11653,4.6146 c -0.3733,0.30116 -0.73093,0.62114 -1.0697,0.96306 l -36.31146,32.70722 4.33537,-57.29203 38.16257,19.00418 z m -62.90077,-40.01287 c 0.0627,-1.57477 0.41096,-3.12135 1.03213,-4.57067 l 0.0471,-0.11607 0.0784,-0.17254 0.11607,-0.26978 0.069,-0.12549 v -0.0878 l 0.26038,-0.4831 0.0471,-0.0972 51.24079,-103.05177 V 321.90149 h -97.84779 c -1.68463,5.082 -4.53301,9.70287 -8.31915,13.48941 -6.4278,6.45294 -15.16464,10.07309 -24.27483,10.06345 h -178.871 c -9.09091,-0.006 -17.80277,-3.62328 -24.21781,-10.06345 l -0.0878,-0.0784 v 0.003 c -3.73932,-3.7488 -6.57212,-8.3071 -8.279,-13.31995 h -99.42183 v 613.8776 H 633.50334 V 847.0199 c 0,-3.48522 1.3866,-6.82934 3.85231,-9.29489 2.46258,-2.46571 5.8067,-3.84919 9.29169,-3.84919 h 87.27919 l 0.003,-178.81473 -38.72071,34.88678 -0.003,-0.003 c -2.46884,2.48137 -5.82862,3.86798 -9.32621,3.85545 H 469.33593 c -3.54803,0.0972 -6.98306,-1.24543 -9.52378,-3.72053 -2.54417,-2.47511 -3.97775,-5.86942 -3.97775,-9.41777 0,-3.54835 1.43366,-6.94539 3.97775,-9.42018 2.54104,-2.4751 5.97607,-3.81778 9.52378,-3.72053 h 204.36888 l 7.33441,-96.84393 z m 79.17929,-161.98209 27.05993,-54.50613 V 268.604 H 637.81558 v 27.13862 h 109.25158 l 0.003,-0.003 c 3.46956,0.003 6.80116,1.38347 9.25393,3.8397 2.45319,2.45632 3.83345,5.7847 3.83345,9.25715 h 0.0565 z m 15.17669,208.97858 -15.17669,13.63637 v 219.69976 l -0.0565,0.16312 v 0.12549 l -0.0565,0.16312 v 0.16626 l -0.069,0.16313 v 0.15685 l -0.069,0.16312 v 0.11607 l -0.0784,0.16313 -0.069,0.1443 -0.0784,0.14431 -0.0784,0.15372 -0.069,0.11607 -0.0878,0.1443 -0.0471,0.0973 v 0.0565 l -0.0878,0.1443 v 0.14744 l -0.0973,0.15372 -0.069,0.10666 -0.0972,0.1443 -0.0878,0.12548 -0.0972,0.1349 -0.10666,0.13489 -0.0784,0.11607 -0.0972,0.1349 -0.069,0.0878 -0.10666,0.13489 -0.0565,0.0565 -0.0565,0.069 -0.10666,0.1349 -0.0784,0.0972 -1.37087,0.67761 -0.0972,0.10665 -0.11607,0.12548 -0.42664,0.42664 h -0.0471 l -0.11606,0.11607 -0.13804,0.11294 -0.12548,0.11607 -99.05241,100.6104 c -2.49085,2.95824 -6.16432,4.66166 -10.03213,4.65539 H 279.47393 c -3.48522,-0.003 -6.82622,-1.3866 -9.28847,-3.85231 -2.46258,-2.46571 -3.84605,-5.8067 -3.84605,-9.29169 V 308.80995 c 0,-3.48522 1.38347,-6.82621 3.84605,-9.29168 2.46258,-2.46571 5.80357,-3.84918 9.28847,-3.85232 H 390.29956 V 268.60603 H 240.82952 V 987.63948 H 787.24804 V 596.44911 l -8.47013,16.96195 v 0.66191 l -0.10666,0.18195 v 0.0471 l -0.0878,0.1443 -0.047,0.0784 v 0.0565 l -0.0973,0.1443 v 0.13804 l -0.0471,0.069 v 0.1349 l -0.0471,0.0784 v 0.069 l -0.0565,0.069 -0.0565,0.0784 -0.0471,0.069 v 0.069 l -0.0565,0.069 v 0.069 l -0.0565,0.069 -0.11607,0.1349 -0.0565,0.069 -0.0565,0.0565 -0.0471,0.069 -0.0565,0.069 -0.11607,0.12548 -0.0565,0.069 -0.23842,0.23842 -0.069,0.0565 -0.0565,0.0565 h -0.0565 l -0.0565,0.0565 -0.12548,0.11607 -0.0565,0.0565 -0.069,0.0565 -0.0565,0.0565 h -0.0565 l -0.12548,0.10665 -0.0565,0.0565 z M 352.43397,833.90383 c -2.46258,-2.52843 -3.80526,-5.94467 -3.7174,-9.47398 0.0847,-3.52916 1.59051,-6.87641 4.1754,-9.28285 2.58496,-2.40299 6.02939,-3.66721 9.5583,-3.49784 3.52603,0.16627 6.83562,1.74735 9.18247,4.38557 l 5.11653,5.48354 19.44669,-20.83602 v 0.003 c 3.2186,-3.31272 7.93985,-4.68672 12.43174,-3.62014 4.49229,1.06344 8.09348,4.4107 9.48362,8.81546 1.39014,4.40475 0.36076,9.21057 -2.70728,12.66142 -9.76229,10.46499 -19.6595,21.73949 -29.72054,31.80374 -2.55043,2.36533 -5.93214,3.62015 -9.40492,3.49471 -3.47583,-0.12549 -6.75723,-1.62497 -9.12866,-4.16914 z M 458.44109,264.25208 c -2.20535,-2.68535 -3.25314,-6.13291 -2.91745,-9.58963 0.33881,-3.45703 2.03598,-6.6411 4.72126,-8.84677 2.68214,-2.20535 6.13291,-3.25314 9.58962,-2.91745 3.45704,0.33881 6.63798,2.03598 8.84678,4.72126 8.6958,10.56858 21.6648,16.6921 35.35177,16.6921 13.68696,0 26.65517,-6.12352 35.35418,-16.6921 2.97077,-3.61702 7.64496,-5.37063 12.26309,-4.60521 4.61461,0.76544 8.47335,3.93383 10.11726,8.31594 1.64696,4.3793 0.82814,9.30774 -2.14263,12.92162 -13.65886,16.64232 -34.05238,26.28816 -55.58226,26.28816 -21.52668,0 -41.92341,-9.64665 -55.58227,-26.28816 z m -39.51094,52.64619 h -0.0565 c -1.49326,-1.51205 -2.3214,-3.56055 -2.3026,-5.68431 v -72.18041 c 0.003,-4.44202 3.60448,-8.03727 8.0469,-8.03727 h 0.79053 l 29.49729,0.7529 v -0.003 c 3.46956,0.0847 6.83248,-1.21716 9.34549,-3.61388 2.51301,-2.39673 3.96836,-5.69371 4.04995,-9.16319 v -0.37645 h 0.0565 c 0,-16.32831 8.71186,-31.41424 22.85015,-39.57679 14.1383,-8.16255 31.55881,-8.16255 45.70032,0 14.1383,8.16255 22.84694,23.24848 22.84694,39.57679 0,3.48523 1.38347,6.82622 3.84605,9.29169 2.46571,2.46257 5.8067,3.84918 9.28847,3.85231 0.50193,0 0.96306,0 1.47439,-0.0878 l 29.12465,-0.75289 v 0.0502 c 2.13002,-0.0188 4.17853,0.80935 5.69692,2.3026 v 0.0502 c 1.49012,1.51517 2.31826,3.56055 2.3026,5.68431 v 72.18041 c 0.006,2.13949 -0.83135,4.19426 -2.33392,5.71571 -1.50892,1.51204 -3.55742,2.35592 -5.69371,2.35279 H 424.61371 c -2.12689,0.022 -4.1754,-0.80935 -5.68744,-2.3026 z m 50.40317,574.64694 c -4.6962,0 -9.03791,-2.50651 -11.38452,-6.57526 -2.34967,-4.06561 -2.34967,-9.07565 0,-13.14408 2.34653,-4.06561 6.68816,-6.57212 11.38452,-6.57212 h 111.40385 c 4.69619,0 9.03469,2.50651 11.38452,6.57212 2.34653,4.06875 2.34653,9.07887 0,13.14408 -2.34967,4.06875 -6.68817,6.57526 -11.38452,6.57526 z m 0,-103.55772 c -4.6962,0 -9.03791,-2.5065 -11.38452,-6.57212 -2.34967,-4.06874 -2.34967,-9.07887 0,-13.14408 2.34653,-4.06874 6.68816,-6.57525 11.38452,-6.57525 h 111.40385 c 4.69619,0 9.03469,2.50651 11.38452,6.57525 2.34653,4.06562 2.34653,9.07566 0,13.14408 -2.34967,4.06562 -6.68817,6.57212 -11.38452,6.57212 z m 0,51.78046 c -4.6962,0 -9.03791,-2.5065 -11.38452,-6.57212 -2.34967,-4.06874 -2.34967,-9.07886 0,-13.14729 2.34653,-4.06561 6.68816,-6.57212 11.38452,-6.57212 h 111.40385 c 4.69619,0 9.03469,2.50651 11.38452,6.57212 2.34653,4.06875 2.34653,9.07887 0,13.14729 -2.34967,4.06562 -6.68817,6.57212 -11.38452,6.57212 z m 0,-197.71131 c -3.54803,0.0941 -6.98306,-1.24542 -9.52378,-3.72053 -2.54417,-2.4751 -3.97775,-5.87255 -3.97775,-9.42017 0,-3.54803 1.43366,-6.9454 3.97775,-9.42018 2.54104,-2.47511 5.97607,-3.81465 9.52378,-3.72053 h 111.40385 c 3.54802,-0.0941 6.98305,1.24542 9.52377,3.72053 2.54104,2.4751 3.97776,5.87255 3.97776,9.42018 0,3.54802 -1.4368,6.94539 -3.97776,9.42017 -2.54096,2.47479 -5.97607,3.81465 -9.52377,3.72053 z m 0,-51.78046 c -3.54803,0.0941 -6.98306,-1.24542 -9.52378,-3.72053 -2.54417,-2.4751 -3.97775,-5.87255 -3.97775,-9.42018 0,-3.54762 1.43366,-6.94539 3.97775,-9.42017 2.54104,-2.47511 5.97607,-3.81466 9.52378,-3.72053 h 111.40385 c 3.54802,-0.0941 6.98305,1.24542 9.52377,3.72053 2.54072,2.4751 3.97776,5.87255 3.97776,9.42017 0,3.54763 -1.4368,6.9454 -3.97776,9.42018 -2.54096,2.47479 -5.97607,3.81465 -9.52377,3.72053 z m 0,-147.44627 c -4.6962,0 -9.03791,-2.5065 -11.38452,-6.57212 -2.34967,-4.06561 -2.34967,-9.07887 0,-13.14408 2.34653,-4.06874 6.68816,-6.57212 11.38452,-6.57212 h 111.40385 c 4.69619,0 9.03469,2.50338 11.38452,6.57212 2.34653,4.06562 2.34653,9.07887 0,13.14408 -2.34967,4.06562 -6.68817,6.57212 -11.38452,6.57212 z m 0,51.78047 c -4.6962,0 -9.03791,-2.50651 -11.38452,-6.57212 -2.34967,-4.06875 -2.34967,-9.07887 0,-13.14408 2.34653,-4.06875 6.68816,-6.57213 11.38452,-6.57213 h 216.54364 c 4.69619,0 9.03469,2.50338 11.38131,6.57213 2.34966,4.06561 2.34966,9.07565 0,13.14408 -2.34654,4.06561 -6.68504,6.57212 -11.38131,6.57212 z m 0,-103.55772 c -4.6962,0 -9.03791,-2.50337 -11.38452,-6.57212 -2.34967,-4.06561 -2.34967,-9.07887 0,-13.14408 2.34653,-4.06561 6.68816,-6.57212 11.38452,-6.57212 h 111.40385 c 4.69619,0 9.03469,2.50651 11.38452,6.57212 2.34653,4.06562 2.34653,9.07887 0,13.14408 -2.34967,4.06875 -6.68817,6.57212 -11.38452,6.57212 z M 342.83149,865.25785 V 787.9891 h 78.84039 v 77.26875 z m 91.98527,26.29137 H 329.685 c -3.48523,0 -6.82935,-1.3866 -9.2949,-3.85231 -2.46257,-2.46258 -3.84918,-5.8067 -3.84918,-9.2949 V 774.84429 c 0,-3.48843 1.38661,-6.82934 3.84918,-9.29489 2.46571,-2.46571 5.80984,-3.85232 9.2949,-3.85232 h 105.13176 c 3.48522,0 6.82935,1.38661 9.2949,3.85232 2.46571,2.46571 3.84918,5.8067 3.84918,9.29489 v 103.55772 c 0,3.48844 -1.38347,6.83248 -3.84918,9.2949 -2.46571,2.46571 -5.80984,3.85231 -9.2949,3.85231 z m 104.07972,-675.0405 c 0.0565,0.68388 0.11607,1.41793 0.11607,2.09244 l -0.003,-0.003 c 0.003,6.43407 -2.49085,12.62047 -6.95166,17.25668 -4.46402,4.63652 -10.55012,7.36267 -16.98121,7.60424 -6.43094,0.24469 -12.7048,-2.01397 -17.50483,-6.29923 -0.37331,-0.30116 -0.7278,-0.62427 -1.06031,-0.96619 -4.67733,-4.6648 -7.30309,-10.99824 -7.29675,-17.60521 l 0.0784,-1.59991 c 0.40468,-6.30863 3.19668,-12.22214 7.80502,-16.54755 h 0.0502 c 4.44836,-4.1566 10.26743,-6.54072 16.35641,-6.6913 6.08899,-0.15372 12.02137,1.93238 16.67685,5.86316 4.65227,3.92756 7.70142,9.42982 8.56731,15.45616 0.0878,0.47369 0.14743,0.95053 0.17567,1.42732 z M 329.685,563.99525 h 105.13176 c 3.48522,0 6.82621,1.38347 9.29168,3.84918 2.46258,2.46258 3.84919,5.80357 3.85232,9.28847 v 103.56575 c -0.003,3.48522 -1.38974,6.82621 -3.85232,9.28847 -2.46571,2.46258 -5.8067,3.84605 -9.29168,3.84605 H 329.685 c -3.48209,0 -6.82622,-1.38347 -9.28847,-3.84605 -2.46571,-2.46258 -3.85232,-5.80357 -3.85545,-9.28847 V 577.1329 c 0.003,-3.48522 1.38974,-6.82621 3.85545,-9.28847 2.46257,-2.46571 5.8067,-3.84918 9.28847,-3.84918 z m 91.98527,26.27932 v 77.27839 l -78.83718,0.003 V 590.27771 Z M 329.685,364.7123 c -3.49157,-0.003 -6.84188,1.38974 -9.30775,3.86171 -2.46571,2.47511 -3.84605,5.82863 -3.83657,9.31979 v 103.51756 c 0,3.48844 1.3866,6.83248 3.84918,9.2949 2.46571,2.46571 5.80983,3.85232 9.2949,3.85232 h 105.13176 c 3.48522,0 6.82935,-1.38661 9.29489,-3.85232 2.46571,-2.46258 3.84919,-5.8067 3.84919,-9.2949 V 377.8938 c 0,-3.48522 -1.38348,-6.82934 -3.84919,-9.29489 -2.4657,-2.46571 -5.80983,-3.84919 -9.29489,-3.84919 z m 91.98527,26.28816 h -78.83718 v 77.26875 h 78.84039 v -77.26875 z m 238.12251,525.98806 v -56.85917 h 55.95249 z M 356.17072,638.63149 c -3.19355,-3.4319 -4.31658,-8.3071 -2.94258,-12.78671 1.37399,-4.48281 5.03493,-7.89279 9.60248,-8.94395 4.57067,-1.05405 9.35191,0.41409 12.54819,3.84292 l 1.92611,2.06104 20.5164,-19.58161 v 0.003 c 2.5065,-2.46258 5.89448,-3.81778 9.40813,-3.75819 3.51036,0.0596 6.85127,1.52457 9.27321,4.06874 2.42178,2.54417 3.72053,5.95415 3.60449,9.46435 -0.11294,3.51036 -1.63123,6.82622 -4.2162,9.20736 l -30.20319,28.83233 0.003,0.003 c -2.54731,2.36846 -5.92901,3.62954 -9.40492,3.5041 -3.47591,-0.12544 -6.75723,-1.62496 -9.12866,-4.16913 z"
     fill="#007335"
     fill-rule="evenodd"
     id="path2"
     style="stroke-width:0.803084" />
</svg>
