<?xml version="1.0" encoding="UTF-8" standalone="no"?>
<svg
   width="1200pt"
   height="1200pt"
   version="1.1"
   viewBox="0 0 1200 1200"
   id="svg4"
   sodipodi:docname="budget.svg"
   inkscape:version="1.1.1 (3bf5ae0d25, 2021-09-20)"
   xmlns:inkscape="http://www.inkscape.org/namespaces/inkscape"
   xmlns:sodipodi="http://sodipodi.sourceforge.net/DTD/sodipodi-0.dtd"
   xmlns="http://www.w3.org/2000/svg"
   xmlns:svg="http://www.w3.org/2000/svg">
  <defs
     id="defs8" />
  <sodipodi:namedview
     id="namedview6"
     pagecolor="#ffffff"
     bordercolor="#666666"
     borderopacity="1.0"
     inkscape:pageshadow="2"
     inkscape:pageopacity="0.0"
     inkscape:pagecheckerboard="0"
     inkscape:document-units="pt"
     showgrid="false"
     inkscape:zoom="0.545625"
     inkscape:cx="800"
     inkscape:cy="800"
     inkscape:window-width="2560"
     inkscape:window-height="1351"
     inkscape:window-x="2551"
     inkscape:window-y="-9"
     inkscape:window-maximized="1"
     inkscape:current-layer="svg4" />
  <path
     d="m 790.22453,522.18078 c 0,7.34692 -5.95801,13.30134 -13.30133,13.30134 l -402.84095,0.003 c -7.34692,0 -13.30133,-5.95801 -13.30133,-13.30133 0,-7.34692 5.95801,-13.30134 13.30133,-13.30134 l 402.84095,-0.003 c 7.34692,0.01 13.30133,5.95801 13.30133,13.30133 z m 246.92437,92.99411 v 402.71021 c 0,22.8263 -18.5636,41.39 -41.38998,41.39 H 706.52657 c -10.54265,0 -20.17965,-3.9752 -27.49444,-10.492 l -296.42535,-0 c -7.26387,6.4976 -16.80711,10.4822 -27.29909,10.4822 H 211.36587 c -22.622,0 -41.01321,-18.401 -41.01321,-41.0132 v -14.0493 c 0,-5.79191 1.22608,-11.29955 3.40368,-16.29705 -16.64445,-5.23016 -28.74259,-20.79288 -28.74259,-39.13259 v -14.05823 c 0,-18.34053 12.10713,-33.91175 28.74259,-39.1324 -2.1776,-4.99693 -3.39085,-10.50506 -3.39085,-16.29706 v -14.04924 c 0,-21.62888 16.83981,-39.35555 38.09187,-40.86935 -27.24841,-21.94847 -44.73313,-55.56351 -44.73313,-93.19028 0,-26.8814 8.92096,-51.71851 23.95025,-71.72569 V 267.20029 c 0,-20.79268 16.91909,-37.71177 37.71178,-37.71177 h 71.02928 v -71.02929 c 0,-20.79268 16.91909,-37.71178 37.71178,-37.71178 h 372.93276 c 10.21734,0 19.44482,3.82194 26.66725,11.04454 l 139.42168,139.42167 c 7.22234,7.22235 11.04453,16.44992 11.04453,26.66725 v 275.90077 h 111.58965 c 22.78791,-0.0128 41.36391,18.56367 41.36391,41.39001 z M 730.43269,166.15158 v 97.21182 c 0,6.13041 4.98736,11.1181 11.11809,11.1181 H 838.7626 Z M 322.9735,158.45981 v 459.82916 c 28.79409,10.14704 52.56779,31.01002 66.51486,57.78843 H 665.13573 V 619.08347 H 374.08879 c -7.34692,0 -13.30134,-5.95802 -13.30134,-13.30134 0,-7.34692 5.95802,-13.30134 13.30134,-13.30134 h 297.8476 c 7.40757,-11.25786 20.14696,-18.70753 34.59509,-18.70753 H 857.56005 V 301.06848 H 741.5565 c -20.79268,0 -37.71177,-16.91909 -37.71177,-37.71178 l -0.003,-116.01989 H 334.09658 c -6.1304,0 -11.1181,4.98737 -11.1181,11.1181 z M 396.32417,1004.21 v 14.0493 c 0,1.3282 -0.0703,2.6373 -0.19477,3.9336 h 269.23089 c -0.14368,-1.4208 -0.22351,-2.8513 -0.22351,-4.3008 V 940.04579 H 370.99194 v 8.72642 c 0,5.79192 -1.22608,11.29956 -3.39085,16.29706 16.63219,5.22997 28.72952,20.80168 28.72952,39.14223 z m 0,-138.98846 v 14.04925 c 0,14.25359 -7.31496,26.8111 -18.37241,34.16759 h 287.18071 l 0.003,-127.15271 H 389.47194 c -7.69497,14.75465 -18.37241,27.72086 -31.23317,38.07879 21.26186,1.51347 38.08859,19.24047 38.08859,40.85953 z M 402.975,731.16192 c 0,9.82744 -1.21652,19.37125 -3.46433,28.51618 H 665.12871 V 702.68416 H 399.51884 c 2.23506,9.13512 3.45158,18.66912 3.45158,28.47776 z M 214.2322,267.21313 v 366.37732 c 19.53391,-13.87678 43.37218,-22.06945 69.10106,-22.06945 4.41259,0 8.75504,0.25544 13.04632,0.7248 V 256.10216 h -71.02929 c -6.13359,0 -11.11809,4.98418 -11.11809,11.11483 z m 69.09779,557.00011 c 51.30084,0 93.05133,-41.73741 93.05133,-93.03497 0,-51.29757 -41.73741,-93.05132 -93.05133,-93.05132 -51.30982,0 -93.03497,41.73741 -93.03497,93.05132 0,51.31391 41.73741,93.03497 93.03497,93.03497 z m -86.39779,55.07144 c 0,7.9504 6.46888,14.41626 14.41625,14.41626 h 143.95001 c 7.95039,0 14.41625,-6.46889 14.41625,-14.41626 v -14.04924 c 0,-7.9504 -6.46888,-14.41625 -14.41625,-14.41625 H 211.35663 c -7.9504,0 -14.41625,6.46888 -14.41625,14.41625 v 14.04924 z m -25.33899,69.4877 c 0,7.95039 6.46888,14.41625 14.41625,14.41625 h 143.95 c 7.9504,0 14.41626,-6.46888 14.41626,-14.41625 v -14.05824 c 0,-7.9504 -6.46889,-14.41625 -14.41626,-14.41625 H 211.35663 c -0.71521,0 -1.42087,-0.0702 -2.13608,-0.11176 v 0.11176 H 186.0084 c -7.9504,0 -14.41625,6.46888 -14.41625,14.41625 z m 198.13458,55.44172 c 0,-7.9504 -6.46888,-14.41626 -14.41626,-14.41626 h -22.82634 v -0.1341 c -0.83651,0.0511 -1.66673,0.12133 -2.51281,0.12133 H 211.36137 c -7.9504,0 -14.41625,6.46888 -14.41625,14.41623 v 14.0493 c 0,7.9504 6.46888,14.4162 14.41625,14.4162 h 143.95 c 7.9504,0 14.41625,-6.4689 14.41625,-14.4162 z M 1010.5427,615.18698 c 0,-8.15474 -6.6317,-14.79633 -14.79629,-14.79633 H 706.52224 c -8.15474,0 -14.79634,6.64127 -14.79634,14.79633 v 402.71022 c 0,8.1547 6.64127,14.7963 14.79634,14.7963 h 289.22417 c 8.15469,0 14.79629,-6.6413 14.79629,-14.7963 z m -211.35168,132.5965 v 50.46383 c 0,11.32245 -9.2144,20.53685 -20.53684,20.53685 h -48.03129 c -11.32244,0 -20.53684,-9.2144 -20.53684,-20.53685 v -50.46383 c 0,-11.32244 9.2144,-20.53684 20.53684,-20.53684 h 48.03129 c 11.31917,-0.01 20.53684,9.20541 20.53684,20.53684 z m -26.59695,6.06019 h -35.91434 v 38.34689 h 35.91434 z m 26.59695,94.14662 v 50.46383 c 0,11.32244 -9.2144,20.53685 -20.53684,20.53685 h -48.03129 c -11.32244,0 -20.53684,-9.21441 -20.53684,-20.53685 v -50.46383 c 0,-11.32244 9.2144,-20.53684 20.53684,-20.53684 h 48.03129 c 11.31917,0 20.53684,9.20541 20.53684,20.53684 z m -26.59695,6.057 h -35.91434 v 38.34689 h 35.91434 z M 710.08605,690.52905 v -58.13664 c 0,-11.32245 9.2144,-20.53685 20.53684,-20.53685 h 237.86775 c 11.32245,0 20.53685,9.2144 20.53685,20.53685 v 58.13664 c 0,11.32244 -9.2144,20.53684 -20.53685,20.53684 H 730.62289 c -11.32244,0.0128 -20.53684,-9.20541 -20.53684,-20.53684 z m 26.59368,-6.057 h 225.75408 v -46.0197 H 736.67973 Z m 159.01444,63.3156 v 50.46383 c 0,11.32245 -9.2144,20.53685 -20.53685,20.53685 h -48.03128 c -11.32245,0 -20.53685,-9.2144 -20.53685,-20.53685 v -50.46383 c 0,-11.32244 9.2144,-20.53684 20.53685,-20.53684 h 48.03128 c 11.33144,-0.01 20.53685,9.20541 20.53685,20.53684 z m -26.59695,6.06019 h -35.91435 v 38.34689 h 35.91435 z m 26.59695,94.14662 v 50.46383 c 0,11.32244 -9.2144,20.53685 -20.53685,20.53685 h -48.03128 c -11.32245,0 -20.53685,-9.21441 -20.53685,-20.53685 v -50.46383 c 0,-11.32244 9.2144,-20.53685 20.53685,-20.53685 h 48.03128 c 11.33144,0 20.53685,9.20542 20.53685,20.53685 z m -26.59695,6.057 h -35.91435 v 38.34689 h 35.91435 z m -69.90538,94.14662 v 50.46383 c 0,11.32249 -9.2144,20.53689 -20.53684,20.53689 h -48.03129 c -11.32244,0 -20.53685,-9.2144 -20.53685,-20.53689 v -50.46383 c 0,-11.32244 9.21441,-20.53685 20.53685,-20.53685 H 778.655 c 11.31917,-0.01 20.53684,9.20542 20.53684,20.53685 z m -26.59695,6.06019 h -35.91434 v 38.34689 h 35.91434 z m 123.09846,-6.06019 v 50.46383 c 0,11.32249 -9.2144,20.53689 -20.53684,20.53689 h -48.03129 c -11.32244,0 -20.53685,-9.2144 -20.53685,-20.53689 v -50.46383 c 0,-11.32244 9.21441,-20.53685 20.53685,-20.53685 h 48.03129 c 11.33143,-0.01 20.53684,9.20542 20.53684,20.53685 z m -26.59695,6.06019 h -35.91434 v 38.34689 H 869.0964 Z M 992.20304,747.79452 v 50.46383 c 0,11.32244 -9.2144,20.53684 -20.53685,20.53684 h -48.03128 c -11.32245,0 -20.53685,-9.2144 -20.53685,-20.53684 v -50.46383 c 0,-11.32244 9.2144,-20.53685 20.53685,-20.53685 h 48.03128 c 11.32245,-0.01 20.53685,9.20541 20.53685,20.53685 z m -26.60676,6.06019 h -35.91435 v 38.34688 h 35.91435 z m 26.60676,94.14662 v 150.66074 c 0,11.32243 -9.2144,20.53683 -20.53685,20.53683 h -48.03128 c -11.32245,0 -20.53685,-9.2144 -20.53685,-20.53683 V 848.00133 c 0,-11.32245 9.2144,-20.53685 20.53685,-20.53685 h 48.03128 c 11.32245,0 20.53685,9.20541 20.53685,20.53685 z m -26.60676,6.057 H 929.68193 V 992.6054 h 35.91435 z M 358.80096,303.38479 c 0,-62.29387 50.67799,-112.98739 112.98739,-112.98739 62.29387,0 112.98738,50.67799 112.98738,112.98739 0,62.3094 -50.67798,112.98739 -112.98738,112.98739 -62.29387,0 -112.98739,-50.69107 -112.98739,-112.98739 z m 112.98739,86.38144 c 9.29777,0 18.25715,-1.49107 26.65743,-4.23063 l -34.8313,-68.85503 h -77.18257 c 6.41779,41.3516 42.24909,73.08583 85.35971,73.08583 z m 6.08888,-172.51767 6.93822,82.44164 37.34477,73.80104 c 21.78173,-15.69301 36.00671,-41.26822 36.00671,-70.10972 0,-45.57259 -35.48603,-82.99746 -80.28946,-86.13623 z m -91.44925,72.8398 h 70.88951 l -5.94518,-70.62059 c -33.59623,8.17068 -59.58015,36.02224 -64.94384,70.62059 z m 239.08566,65.97211 h 151.41275 c 7.34691,0 13.30133,-5.95801 13.30133,-13.30134 0,-7.34692 -5.95801,-13.30133 -13.30133,-13.30133 l -151.41275,-0.003 c -7.34692,0 -13.30133,5.95802 -13.30133,13.30134 0,7.34692 5.95482,13.30461 13.30133,13.30461 z m 0,60.32397 h 151.41275 c 7.34691,0 13.30133,-5.95802 13.30133,-13.30134 0,-7.34692 -5.95801,-13.30133 -13.30133,-13.30133 l -151.41275,-0.003 c -7.34692,0 -13.30133,5.95802 -13.30133,13.30134 0,7.34692 5.95482,13.30461 13.30133,13.30461 z M 270.04027,798.17767 v 6.5391 c 0,7.34692 5.95801,13.30133 13.30133,13.30133 7.34692,0 13.30134,-5.95801 13.30134,-13.30133 v -6.07932 c 18.24734,-4.16998 31.57157,-17.42015 35.02666,-35.79255 2.0339,-10.93255 0.46936,-20.04478 -4.65845,-27.07594 -8.51227,-11.67964 -23.59224,-13.59887 -36.90338,-15.29413 -21.38611,-2.72672 -25.49267,-5.06714 -25.84986,-14.71296 -0.4502,-12.09814 8.79671,-15.49847 14.34595,-16.45972 11.28076,-1.95086 24.92049,3.16737 29.17091,16.69594 2.19672,7.00844 9.66478,10.90068 16.67305,8.70354 7.00828,-2.19714 10.90068,-9.66478 8.70354,-16.67306 -5.98671,-19.07454 -20.62921,-30.15095 -36.50777,-34.07522 v -6.30279 c 0,-7.34692 -5.95801,-13.30134 -13.30133,-13.30134 -7.34692,0 -13.30134,5.95802 -13.30134,13.30134 v 6.30279 c -20.281,5.19171 -33.13605,21.92558 -32.37016,42.79184 1.25804,34.01392 31.18168,37.83602 49.06202,40.11244 6.3667,0.81739 17.02126,2.1776 18.78109,4.58824 0.26502,0.36718 0.79823,2.26694 0,6.51997 -2.56389,13.67243 -15.94885,15.29412 -19.98429,15.46986 -10.56554,0.41827 -22.85495,-4.94585 -26.49478,-18.03319 -1.96042,-7.08192 -9.29777,-11.20719 -16.36653,-9.25609 -7.08192,1.96042 -11.22027,9.29778 -9.25609,16.36654 4.94584,17.79451 19.04593,30.98713 36.62874,35.66504 z M 625.51364,295.72996 h 40.3266 c 7.34692,0 13.30134,-5.95801 13.30134,-13.30133 0,-7.34692 -5.95802,-13.30134 -13.30134,-13.30134 h -40.3266 c -7.34692,0 -13.30133,5.95801 -13.30133,13.30134 0,7.34373 5.95482,13.30133 13.30133,13.30133 z"
     fill="#007335"
     id="path2"
     style="stroke-width:0.817387" />
</svg>
