<?xml version="1.0" encoding="UTF-8" standalone="no"?>
<svg
   width="377"
   height="377"
   xml:space="preserve"
   overflow="hidden"
   version="1.1"
   id="svg84"
   sodipodi:docname="business-unit.svg"
   inkscape:version="1.1.1 (3bf5ae0d25, 2021-09-20)"
   xmlns:inkscape="http://www.inkscape.org/namespaces/inkscape"
   xmlns:sodipodi="http://sodipodi.sourceforge.net/DTD/sodipodi-0.dtd"
   xmlns="http://www.w3.org/2000/svg"
   xmlns:svg="http://www.w3.org/2000/svg"><sodipodi:namedview
     id="namedview86"
     pagecolor="#ffffff"
     bordercolor="#666666"
     borderopacity="1.0"
     inkscape:pageshadow="2"
     inkscape:pageopacity="0.0"
     inkscape:pagecheckerboard="0"
     showgrid="false"
     inkscape:zoom="2.3156499"
     inkscape:cx="188.5"
     inkscape:cy="188.5"
     inkscape:window-width="2560"
     inkscape:window-height="1351"
     inkscape:window-x="2551"
     inkscape:window-y="-9"
     inkscape:window-maximized="1"
     inkscape:current-layer="svg84" /><defs
     id="defs20"><clipPath
       id="clip0"><rect
         x="2168"
         y="743"
         width="71"
         height="74"
         id="rect2" /></clipPath><clipPath
       id="clip1"><rect
         x="2168"
         y="743"
         width="71"
         height="74"
         id="rect5" /></clipPath><clipPath
       id="clip2"><rect
         x="2168"
         y="743"
         width="71"
         height="74"
         id="rect8" /></clipPath><clipPath
       id="clip3"><rect
         x="2271"
         y="701"
         width="66"
         height="65"
         id="rect11" /></clipPath><clipPath
       id="clip4"><rect
         x="2271"
         y="701"
         width="66"
         height="65"
         id="rect14" /></clipPath><clipPath
       id="clip5"><rect
         x="2271"
         y="701"
         width="66"
         height="65"
         id="rect17" /></clipPath></defs><g
     transform="matrix(0.88069623,0,0,0.88069623,-1757.2,-404.48318)"
     id="g82"><path
       d="m 2221.01,493.713 c -3.14,0 -5.71,2.571 -5.71,5.713 V 665.99 c 0,3.142 2.57,5.713 5.71,5.713 l 166.56,-0.002 c 3.15,0 5.72,-2.571 5.72,-5.713 0,-94.991 -77.29,-172.276 -172.28,-172.276 z m 5.71,166.565 V 505.252 c 84.14,2.97 152.06,70.889 155.03,155.026 z"
       fill="#007335"
       id="path22" /><path
       d="M 2366.48,681.297 H 2205.69 V 520.501 c 0,-3.142 -2.57,-5.713 -5.72,-5.713 -94.99,10e-4 -172.27,77.228 -172.27,172.22 0,46.041 17.93,89.279 50.44,121.784 32.55,32.561 75.8,50.496 121.84,50.496 46.04,0 89.28,-17.935 121.78,-50.439 32.56,-32.562 50.44,-75.8 50.44,-121.785 0,-3.198 -2.57,-5.768 -5.71,-5.768 z M 2194.26,526.269 v 158.34 l -111.95,111.956 c -27.94,-29.76 -43.18,-68.488 -43.18,-109.559 0,-86.767 69.06,-157.712 155.14,-160.74 z m 5.72,321.581 c -41.07,0 -79.75,-15.31 -109.62,-43.183 l 109.62,-109.615 109.61,109.615 c -29.87,27.933 -68.6,43.183 -109.61,43.183 z m 117.66,-51.238 -103.9,-103.904 h 146.97 c -1.37,38.956 -16.5,75.4 -43.07,103.904 z"
       fill="#007335"
       id="path24" /><g
       id="g40"><g
         id="g38"><g
           id="g36"><path
             d="M 56.4968,36.8978 H 35.8516 c -0.5498,0 -1.062,-0.2464 -1.4063,-0.6751 -0.3442,-0.4286 -0.4734,-0.9821 -0.3542,-1.5188 l 0.9448,-4.2501 c 0.6621,-2.8933 3.2411,-5.9633 6.7192,-5.9633 h 8.8017 c 3.0597,0 5.9485,2.4897 6.7165,5.7919 l 0.9848,4.4221 c 0.119,0.5347 -0.0094,1.0889 -0.3533,1.5179 -0.3442,0.429 -0.8573,0.6754 -1.4081,0.6754 z m -20.5732,-1.86 h 20.5732 l -1.0378,-4.343 c -0.5758,-2.4719 -2.685,-4.344 -4.9022,-4.344 h -8.8017 c -2.4228,0 -4.3969,2.2944 -4.9039,4.5123 z M 46.0591,23.9584 c -3.5701,0 -6.4746,-2.9045 -6.4746,-6.4746 0,-3.5701 2.9045,-6.4755 6.4746,-6.4755 3.5701,0 6.4755,2.9053 6.4755,6.4755 0,3.5701 -2.9053,6.4746 -6.4755,6.4746 z m 0,-11.0903 c -2.5445,0 -4.6146,2.0711 -4.6146,4.6155 0,2.5445 2.0701,4.6146 4.6146,4.6146 2.5445,0 4.6155,-2.0701 4.6155,-4.6146 0,-2.5441 -2.0701,-4.6155 -4.6155,-4.6155 z"
             fill="#007335"
             transform="matrix(1,0,0,1.01075,2243,543)"
             id="path26" /><path
             d="M 26.7732,81.0031 H 6.12716 c -0.54977,0 -1.06291,-0.2464 -1.40624,-0.6758 C 4.37671,79.8988 4.24835,79.3439 4.36854,78.8083 L 5.31156,74.5591 C 5.97364,71.6649 8.5526,68.5949 12.0307,68.5949 l 8.8017,3e-4 c 3.0589,0 5.9464,2.4897 6.7165,5.7911 l 0.9839,4.4244 c 0.1189,0.5347 -0.0094,1.0888 -0.3534,1.5174 -0.3432,0.4286 -0.8566,0.675 -1.4061,0.675 z M 6.20001,79.1431 H 26.7732 l -1.0378,-4.3439 c -0.5767,-2.4719 -2.6859,-4.344 -4.9022,-4.344 h -8.8025 c -2.42278,0 -4.39686,2.2953 -4.90394,4.5132 z M 16.3355,68.0622 c -3.5701,0 -6.47555,-2.9045 -6.47555,-6.4746 0,-3.5701 2.90535,-6.4746 6.47555,-6.4746 3.5701,0 6.4746,2.9045 6.4746,6.4746 0,3.5701 -2.9045,6.4746 -6.4746,6.4746 z m 0,-11.0888 c -2.5445,0 -4.6155,2.0702 -4.6155,4.6146 0,2.5445 2.071,4.6146 4.6155,4.6146 2.5445,0 4.6146,-2.0701 4.6146,-4.6146 0,-2.5444 -2.0692,-4.6146 -4.6146,-4.6146 z"
             fill="#007335"
             transform="matrix(1,0,0,1.01075,2243,543)"
             id="path28" /><path
             d="M 56.4968,81.0031 H 35.8516 c -0.5498,0 -1.062,-0.2464 -1.4063,-0.675 -0.3442,-0.4286 -0.4734,-0.9819 -0.3542,-1.519 l 0.9448,-4.25 c 0.6621,-2.8942 3.2411,-5.9642 6.7192,-5.9642 h 8.8017 c 3.0597,0 5.9472,2.4897 6.7165,5.7919 l 0.9848,4.4231 c 0.119,0.5347 -0.0094,1.0889 -0.3533,1.5174 -0.3442,0.4294 -0.8573,0.6758 -1.4081,0.6758 z m -20.5732,-1.86 H 56.4968 L 55.459,74.7992 c -0.5758,-2.4719 -2.685,-4.344 -4.9022,-4.344 h -8.8017 c -2.4228,0 -4.3969,2.2953 -4.9039,4.5132 z M 46.0591,68.0622 c -3.5701,0 -6.4746,-2.9045 -6.4746,-6.4746 0,-3.5701 2.9045,-6.4746 6.4746,-6.4746 3.5701,0 6.4755,2.9045 6.4755,6.4746 0,3.5701 -2.9053,6.4746 -6.4755,6.4746 z m 0,-11.0888 c -2.5445,0 -4.6146,2.0702 -4.6146,4.6146 0,2.5445 2.0701,4.6146 4.6146,4.6146 2.5445,0 4.6155,-2.0701 4.6155,-4.6146 0,-2.5444 -2.0701,-4.6146 -4.6155,-4.6146 z"
             fill="#007335"
             transform="matrix(1,0,0,1.01075,2243,543)"
             id="path30" /><path
             d="M 86.2189,81.0031 H 65.5736 c -0.5498,0 -1.0619,-0.2464 -1.4062,-0.675 -0.3443,-0.4286 -0.4734,-0.9819 -0.3542,-1.519 l 0.944,-4.25 c 0.6629,-2.8942 3.242,-5.9642 6.7192,-5.9642 h 8.8021 c 3.0597,0 5.9474,2.4897 6.717,5.7919 l 0.9842,4.4231 c 0.1194,0.5347 -0.0093,1.0889 -0.3526,1.5174 -0.3457,0.4294 -0.858,0.6758 -1.4082,0.6758 z m -20.5732,-1.86 h 20.5732 l -1.0377,-4.3439 c -0.5758,-2.4719 -2.6854,-4.344 -4.9027,-4.344 h -8.8021 c -2.4215,0 -4.396,2.2953 -4.9039,4.5141 z M 75.7812,68.0622 c -3.5701,0 -6.4746,-2.9045 -6.4746,-6.4746 0,-3.5701 2.9045,-6.4746 6.4746,-6.4746 3.5704,0 6.4759,2.9045 6.4759,6.4746 0,3.5701 -2.9055,6.4746 -6.4759,6.4746 z m 0,-11.0888 c -2.5445,0 -4.6146,2.0702 -4.6146,4.6146 0,2.5445 2.0701,4.6146 4.6146,4.6146 2.5443,0 4.6159,-2.0701 4.6159,-4.6146 0,-2.5444 -2.0708,-4.6146 -4.6159,-4.6146 z"
             fill="#007335"
             transform="matrix(1,0,0,1.01075,2243,543)"
             id="path32" /><path
             d="m 46.5001,44.6401 v -2.79 c 0,-0.5144 -0.4157,-0.93 -0.93,-0.93 -0.5144,0 -0.93,0.4156 -0.93,0.93 v 2.79 H 14.88 v 6.6698 c 0,0.5144 0.4157,0.93 0.93,0.93 0.5144,0 0.93,-0.4156 0.93,-0.93 v -4.8098 h 27.9001 v 4.65 c 0,0.5144 0.4156,0.93 0.93,0.93 0.5143,0 0.93,-0.4156 0.93,-0.93 v -4.65 h 28.83 v 4.8098 c 0,0.5144 0.4157,0.93 0.93,0.93 0.5144,0 0.93,-0.4156 0.93,-0.93 v -6.6698 z"
             fill="#007335"
             transform="matrix(1,0,0,1.01075,2243,543)"
             id="path34" /></g></g></g><g
       clip-path="url(#clip0)"
       id="g52"><g
         clip-path="url(#clip1)"
         id="g50"><g
           clip-path="url(#clip2)"
           id="g48"><path
             d="M 70.065,38.8132 63.2164,36.0768 56.0721,20.3533 c -0.1167,-0.2596 -0.3058,-0.4798 -0.5445,-0.6347 -0.2388,-0.1548 -0.517,-0.2374 -0.8015,-0.238 H 37.4642 v -0.5325 c 0,-3.9231 -1.5584,-7.6852 -4.3323,-10.45948 C 30.358,5.71469 26.5958,4.15625 22.6724,4.15625 18.7491,4.15625 14.9873,5.71469 12.213,8.48862 9.43907,11.2625 7.88062,15.0247 7.88062,18.9481 v 0.5325 H 1.47584 c -0.39221,0 -0.768451,0.1557 -1.045824,0.4333 -0.277574,0.2773 -0.43334707,0.6536 -0.43334707,1.0458 v 36.9791 c 0,0.3922 0.15577307,0.7684 0.43334707,1.0458 0.277343,0.2778 0.653614,0.4334 1.045824,0.4334 h 3.22458 c 0.66172,2.834 2.57327,5.2149 5.19743,6.4734 2.62435,1.2584 5.67745,1.2584 8.30165,0 2.6242,-1.2585 4.5357,-3.6394 5.1974,-6.4734 H 47.596 c 0.6617,2.834 2.5733,5.2149 5.1974,6.4734 2.6244,1.2584 5.6775,1.2584 8.3019,0 2.6241,-1.2585 4.5357,-3.6394 5.1972,-6.4734 h 3.2246 c 0.3923,0 0.7686,-0.1556 1.0461,-0.4334 0.2774,-0.2774 0.433,-0.6536 0.433,-1.0458 v -17.75 c 0,-0.2963 -0.0881,-0.5856 -0.2544,-0.8311 -0.1662,-0.2452 -0.4023,-0.435 -0.6774,-0.5445 z m -14.2739,-11.9368 4.0381,8.875 H 44.3719 v -8.875 z M 22.7466,7.14436 c 3.1383,0 6.148,1.24663 8.3673,3.46584 2.2193,2.2192 3.4658,5.2291 3.4658,8.3673 0,3.1383 -1.2466,6.148 -3.4658,8.3674 -2.2192,2.2193 -5.2291,3.4658 -8.3673,3.4658 -3.1383,0 -6.148,-1.2466 -8.3674,-3.4658 -2.2193,-2.2193 -3.4658,-5.2291 -3.4658,-8.3674 0,-3.1382 1.2466,-6.148 3.4658,-8.3673 2.2193,-2.21933 5.2291,-3.46584 8.3674,-3.46584 z M 14.0491,63.8554 c -1.7653,0 -3.4585,-0.7011 -4.70677,-1.9495 -1.24829,-1.2484 -1.94948,-2.9414 -1.94948,-4.7067 0,-1.7653 0.70125,-3.4584 1.94948,-4.7067 1.24827,-1.2483 2.94147,-1.9495 4.70677,-1.9495 1.7653,0 3.4584,0.7012 4.7067,1.9495 1.2483,1.2483 1.9495,2.9414 1.9495,4.7067 -0.0039,1.7641 -0.7065,3.4553 -1.9538,4.7026 -1.2474,1.2472 -2.9382,1.9495 -4.7024,1.9536 z m 42.8957,0 c -1.7653,0 -3.4585,-0.7011 -4.7068,-1.9495 -1.2482,-1.2484 -1.9494,-2.9414 -1.9494,-4.7067 0,-1.7653 0.7012,-3.4584 1.9494,-4.7067 1.2483,-1.2483 2.9415,-1.9495 4.7068,-1.9495 1.7653,0 3.4583,0.7012 4.7067,1.9495 1.2484,1.2483 1.9495,2.9414 1.9495,4.7067 -0.0041,1.7641 -0.7064,3.4553 -1.9536,4.7026 -1.2479,1.2472 -2.9384,1.9495 -4.7026,1.9536 z m 11.0937,-7.3958 h -1.4791 c -0.255,-3.2407 -2.133,-6.132 -4.9896,-7.6833 -2.8567,-1.5511 -6.3043,-1.5511 -9.1614,0 -2.8569,1.551 -4.7347,4.4425 -4.9896,7.6833 H 23.6634 c 0,-3.4349 -1.8326,-6.6089 -4.8073,-8.3265 -2.9747,-1.7174 -6.6396,-1.7174 -9.61453,0 -2.97471,1.7175 -4.80728,4.8917 -4.80728,8.3265 H 2.95513 V 22.4389 h 5.45811 c 0.81721,3.1784 2.66826,5.9947 5.26166,8.0058 2.5936,2.011 5.7822,3.1024 9.0643,3.1024 3.2822,0 6.4705,-1.0914 9.0643,-3.1024 2.5934,-2.0112 4.4444,-4.8276 5.2617,-8.0058 h 16.7145 l 0.6657,1.4792 H 42.8931 c -0.3922,0 -0.7684,0.1557 -1.0458,0.4333 -0.2776,0.2774 -0.4334,0.6536 -0.4334,1.0458 v 11.8333 c 0,0.3922 0.1558,0.7685 0.4334,1.0459 0.2774,0.2776 0.6536,0.4333 1.0458,0.4333 h 18.9483 l 6.1977,2.485 z"
             fill="#007335"
             transform="matrix(1,0,0,1.01409,2168,744)"
             id="path42" /><path
             d="m 22.7495,29.5833 c 2.8194,-0.004 5.5224,-1.1256 7.5159,-3.1192 1.9936,-1.9937 3.1153,-4.6966 3.1192,-7.516 h -2.9583 c 0,2.0408 -0.811,3.9979 -2.2545,5.4406 -1.4436,1.4426 -3.4012,2.2524 -5.442,2.2511 -2.0408,-0.0014 -3.9974,-0.8136 -5.4392,-2.2581 -1.4417,-1.4444 -2.2501,-3.4027 -2.2476,-5.4435 0.0026,-2.0408 0.8161,-3.9968 2.2615,-5.4375 1.4455,-1.4409 3.4042,-2.2481 5.445,-2.2442 V 8.29816 c -1.913,-0.07141 -3.8101,0.37417 -5.491,1.28989 -1.6811,0.91575 -3.0845,2.26775 -4.0621,3.91355 -0.9776,1.6458 -1.4937,3.5248 -1.4937,5.4392 0,1.9144 0.5161,3.7933 1.4937,5.4392 0.9776,1.6457 2.381,2.9978 4.0621,3.9135 1.6809,0.9158 3.578,1.3613 5.491,1.2899 z"
             fill="#007335"
             transform="matrix(1,0,0,1.01409,2168,744)"
             id="path44" /><path
             d="m 21.2704,19.5545 c 0,0.3922 0.1557,0.7685 0.4333,1.0459 0.2774,0.2775 0.6536,0.4333 1.0458,0.4333 h 6.5675 v -2.9583 h -5.0883 v -6.2421 h -2.9583 z"
             fill="#007335"
             transform="matrix(1,0,0,1.01409,2168,744)"
             id="path46" /></g></g></g><g
       id="g66"><g
         id="g64"><g
           id="g62"><path
             d="m 2132.21,641.784 c -1.95,0 -3.46,-1.404 -3.46,-3.024 0,-1.62 1.51,-3.024 3.46,-3.024 1.94,0 3.45,1.404 3.45,3.024 0,0.972 0.76,1.836 1.84,1.836 0.97,0 1.84,-0.756 1.84,-1.836 0,-3.132 -2.27,-5.724 -5.3,-6.48 v -3.132 c 0,-0.972 -0.75,-1.836 -1.83,-1.836 -0.97,0 -1.84,0.756 -1.84,1.836 v 3.132 c -3.02,0.756 -5.29,3.348 -5.29,6.48 0,3.672 3.13,6.696 7.13,6.696 1.94,0 3.45,1.404 3.45,3.024 0,1.62 -1.51,3.024 -3.45,3.024 -1.95,0 -3.46,-1.404 -3.46,-3.024 0,-0.972 -0.86,-1.836 -1.83,-1.836 -0.98,0 -1.84,0.756 -1.84,1.836 0,3.132 2.27,5.724 5.29,6.48 v 3.132 c 0,0.972 0.76,1.836 1.84,1.836 0.97,0 1.83,-0.756 1.83,-1.836 v -3.132 c 3.03,-0.756 5.3,-3.348 5.3,-6.48 0,-3.672 -3.24,-6.696 -7.13,-6.696 z"
             fill="#007335"
             id="path54" /><path
             d="m 2132.21,664.356 c -11.45,0 -20.74,-9.288 -20.74,-20.736 0,-11.448 9.29,-20.736 20.74,-20.736 11.45,0 20.73,9.288 20.73,20.736 0,11.448 -9.28,20.736 -20.73,20.736 z m 0,-37.908 c -9.4,0 -17.17,7.668 -17.17,17.172 0,9.504 7.66,17.172 17.17,17.172 9.39,0 17.17,-7.668 17.17,-17.172 0,-9.504 -7.67,-17.172 -17.17,-17.172 z"
             fill="#007335"
             id="path56" /><path
             d="m 2162.66,676.884 c -1.08,-2.916 -5.07,-7.992 -12.42,-6.372 h -0.1 l -15.34,4.428 c -1.08,-3.564 -4.43,-6.156 -8.32,-6.156 h -7.88 c -1.62,0 -3.24,-0.432 -4.64,-1.188 -3.03,-1.728 -9.08,-4.644 -16.1,-3.996 h -0.1 c -0.22,0 -4.54,0.756 -8,1.62 v -1.188 c 0,-0.972 -0.75,-1.835 -1.83,-1.835 l -11.67,-10e-4 c -0.97,0 -1.83,0.756 -1.83,1.836 V 687.9 c 0,0.972 0.75,1.835 1.83,1.835 h 11.45 c 0.97,0 1.84,-0.755 1.84,-1.835 v -1.08 l 5.4,1.08 23.87,4.428 c 1.94,0.432 3.88,0.647 5.83,0.647 3.13,0 6.37,-0.54 9.39,-1.727 h 0.11 l 27.65,-12.096 c 0.76,-0.324 1.19,-1.404 0.86,-2.268 z m -76.78,9.288 h -7.78 v -20.304 h 7.88 v 20.304 z m 46.76,1.836 c -4.21,1.512 -8.75,1.836 -13.18,0.864 l -23.86,-4.428 -6.05,-1.188 v -14.364 h 0.11 c 3.13,-0.756 7.77,-1.62 8.42,-1.728 5.94,-0.54 11.23,1.945 13.93,3.456 1.95,1.08 4.21,1.728 6.48,1.728 h 7.89 c 2.8,0 5.18,2.268 5.18,5.076 v 0.54 c 0,0.108 -0.11,0.216 -0.22,0.216 h -21.38 c -0.97,0 -1.84,0.756 -1.84,1.836 0,1.08 0.76,1.944 1.84,1.944 h 21.28 c 1.94,0 3.56,-1.404 3.78,-3.24 l 15.98,-4.644 c 4,-0.864 6.26,1.08 7.45,2.592 z"
             fill="#007335"
             id="path58" /><path
             d="m 2085.34,607.116 c 1.08,2.916 5.07,7.992 12.42,6.372 h 0.1 l 15.34,-4.428 c 1.08,3.565 4.43,6.156 8.32,6.156 h 7.88 c 1.62,0 3.24,0.432 4.64,1.188 3.03,1.728 9.08,4.644 16.1,3.996 h 0.1 c 0.22,0 4.54,-0.756 8,-1.62 v 1.188 c 0,0.972 0.75,1.836 1.83,1.836 h 11.45 c 0.97,0 1.84,-0.756 1.84,-1.836 v -23.975 c 0,-0.972 -0.76,-1.836 -1.84,-1.836 h -11.23 c -0.97,0 -1.84,0.755 -1.84,1.835 v 1.08 l -5.4,-1.08 -23.76,-4.427 c -1.94,-0.432 -3.89,-0.648 -5.83,-0.648 -3.13,0 -6.37,0.54 -9.4,1.728 h -0.1 l -27.65,12.204 c -0.87,0.324 -1.3,1.404 -0.97,2.268 z m 76.78,-9.288 h 7.89 v 20.304 h -7.89 z m -46.76,-1.836 c 4.21,-1.512 8.75,-1.835 13.18,-0.864 l 23.86,4.428 6.05,1.188 V 615 h -0.11 c -3.13,0.756 -7.77,1.62 -8.42,1.728 -5.94,0.54 -11.23,-1.944 -13.93,-3.456 -1.95,-1.08 -4.21,-1.728 -6.48,-1.728 h -7.89 c -2.8,0 -5.18,-2.268 -5.18,-5.076 v -0.54 c 0,-0.108 0.11,-0.215 0.22,-0.215 h 21.38 c 0.97,0 1.84,-0.756 1.84,-1.836 0,-1.081 -0.76,-1.836 -1.84,-1.836 h -21.28 c -1.94,0 -3.56,1.404 -3.78,3.24 l -15.98,4.644 c -4,0.864 -6.26,-1.08 -7.45,-2.592 z"
             fill="#007335"
             id="path60" /></g></g></g><g
       clip-path="url(#clip3)"
       id="g80"><g
         clip-path="url(#clip4)"
         id="g78"><g
           clip-path="url(#clip5)"
           id="g76"><path
             d="m 2322.12,746.083 c 4.12,-5.647 5.97,-12.645 5.16,-19.593 -0.8,-6.949 -4.2,-13.338 -9.52,-17.888 -5.31,-4.551 -12.15,-6.93 -19.14,-6.66 -6.99,0.269 -13.62,3.167 -18.56,8.113 -4.95,4.947 -7.85,11.578 -8.12,18.568 -0.27,6.991 2.11,13.825 6.66,19.138 4.55,5.313 10.94,8.713 17.89,9.52 6.95,0.807 13.95,-1.038 19.59,-5.166 l 12.63,12.627 c 0.79,0.843 1.89,1.33 3.04,1.35 1.16,0.019 2.27,-0.43 3.09,-1.246 0.82,-0.816 1.27,-1.929 1.25,-3.083 -0.01,-1.155 -0.5,-2.254 -1.34,-3.045 z m -47.99,-16.35 c 0,-6.789 2.7,-13.301 7.5,-18.102 4.8,-4.801 11.31,-7.498 18.1,-7.498 6.79,0 13.3,2.697 18.11,7.498 4.8,4.801 7.49,11.313 7.49,18.102 0,6.79 -2.69,13.301 -7.49,18.102 -4.81,4.801 -11.32,7.498 -18.11,7.498 -6.78,-0.008 -13.29,-2.707 -18.09,-7.506 -4.8,-4.8 -7.5,-11.307 -7.51,-18.094 z m 46.65,18.027 2.11,2.108 -3.02,3.014 -2.11,-2.103 c 1.08,-0.928 2.09,-1.937 3.02,-3.019 z m 12.46,15.487 c -0.41,0.387 -0.95,0.602 -1.51,0.601 -0.56,-10e-4 -1.1,-0.219 -1.5,-0.608 l -8.84,-8.845 3.01,-3.015 8.85,8.846 c 0.4,0.402 0.62,0.945 0.62,1.512 0,0.566 -0.23,1.11 -0.63,1.509 z"
             fill="#007335"
             id="path68" /><path
             d="m 2305.32,706.935 c -0.28,-0.068 -0.57,-0.024 -0.81,0.123 -0.24,0.147 -0.42,0.384 -0.48,0.66 -0.07,0.275 -0.03,0.567 0.12,0.809 0.15,0.242 0.39,0.415 0.66,0.481 5.29,1.289 9.89,4.548 12.85,9.111 2.97,4.563 4.08,10.086 3.11,15.441 -0.97,5.354 -3.95,10.137 -8.33,13.37 -4.37,3.234 -9.82,4.674 -15.22,4.028 -5.41,-0.647 -10.36,-3.332 -13.85,-7.507 -3.49,-4.175 -5.25,-9.524 -4.93,-14.957 0.32,-5.433 2.7,-10.537 6.66,-14.271 3.96,-3.735 9.19,-5.818 14.63,-5.823 0.38,0 0.74,-0.204 0.93,-0.534 0.19,-0.33 0.19,-0.736 0,-1.066 -0.19,-0.33 -0.55,-0.534 -0.93,-0.534 -5.97,0.007 -11.71,2.294 -16.06,6.393 -4.34,4.1 -6.96,9.703 -7.31,15.665 -0.35,5.962 1.59,11.834 5.42,16.416 3.83,4.583 9.26,7.53 15.19,8.24 5.93,0.71 11.91,-0.871 16.72,-4.419 4.8,-3.549 8.07,-8.798 9.13,-14.674 1.07,-5.877 -0.15,-11.94 -3.4,-16.948 -3.26,-5.009 -8.3,-8.587 -14.1,-10.004 z"
             fill="#007335"
             id="path70" /><path
             d="m 2285.87,729.76 c 0,0.283 0.11,0.554 0.31,0.754 0.2,0.2 0.47,0.313 0.75,0.313 9.13,-0.391 17.82,-4.003 24.54,-10.195 v 0.568 c 0,0.381 0.2,0.733 0.53,0.924 0.33,0.19 0.74,0.19 1.07,0 0.33,-0.191 0.53,-0.543 0.53,-0.924 V 718 c 0,-0.283 -0.11,-0.554 -0.31,-0.754 -0.2,-0.2 -0.47,-0.313 -0.76,-0.313 h -3.2 c -0.38,0 -0.73,0.204 -0.92,0.534 -0.19,0.33 -0.19,0.736 0,1.066 0.19,0.33 0.54,0.534 0.92,0.534 h 0.69 c -6.36,5.776 -14.51,9.177 -23.09,9.625 -0.28,0 -0.55,0.113 -0.75,0.313 -0.2,0.2 -0.31,0.472 -0.31,0.755 z"
             fill="#007335"
             id="path72" /><path
             d="m 2286.93,732.959 c -0.28,0 -0.55,0.112 -0.75,0.312 -0.2,0.2 -0.31,0.472 -0.31,0.755 v 4.266 h -2.14 c -0.38,0 -0.73,0.204 -0.92,0.534 -0.19,0.33 -0.19,0.736 0,1.066 0.19,0.33 0.54,0.534 0.92,0.534 h 32 c 0.38,0 0.74,-0.204 0.93,-0.534 0.19,-0.33 0.19,-0.736 0,-1.066 -0.19,-0.33 -0.55,-0.534 -0.93,-0.534 h -2.13 V 724.4 c 0,-0.381 -0.2,-0.733 -0.53,-0.924 -0.33,-0.19 -0.74,-0.19 -1.07,0 -0.33,0.191 -0.53,0.543 -0.53,0.924 v 13.892 h -2.14 v -10.667 c 0,-0.38 -0.2,-0.733 -0.53,-0.923 -0.33,-0.191 -0.74,-0.191 -1.07,0 -0.33,0.19 -0.53,0.543 -0.53,0.923 v 10.667 h -2.13 v -8.533 c 0,-0.381 -0.21,-0.733 -0.54,-0.924 -0.33,-0.191 -0.73,-0.191 -1.06,0 -0.33,0.191 -0.54,0.543 -0.54,0.924 v 8.533 h -2.13 v -6.4 c 0,-0.381 -0.2,-0.733 -0.53,-0.923 -0.33,-0.191 -0.74,-0.191 -1.07,0 -0.33,0.19 -0.53,0.542 -0.53,0.923 v 6.4 h -2.14 v -5.333 c 0,-0.381 -0.2,-0.733 -0.53,-0.924 -0.33,-0.191 -0.74,-0.191 -1.07,0 -0.33,0.191 -0.53,0.543 -0.53,0.924 v 5.333 h -2.13 v -4.266 c 0,-0.382 -0.21,-0.734 -0.54,-0.924 -0.33,-0.191 -0.73,-0.191 -1.06,0 -0.33,0.19 -0.54,0.542 -0.54,0.924 v 4.266 H 2288 v -4.266 c 0,-0.283 -0.11,-0.555 -0.31,-0.755 -0.2,-0.2 -0.47,-0.312 -0.76,-0.312 z"
             fill="#007335"
             id="path74" /></g></g></g></g></svg>
