<?xml version="1.0" encoding="UTF-8"?>
<svg width="1200pt" height="1200pt" version="1.1" viewBox="0 0 1200 1200" xmlns="http://www.w3.org/2000/svg">
 <path d="m862.92 415.01c-43.367 0-84.957 17.227-115.62 47.891-30.664 30.664-47.895 72.254-47.895 115.62 0 43.367 17.23 84.957 47.895 115.62 30.664 30.664 72.254 47.891 115.62 47.891 43.363 0 84.953-17.227 115.62-47.891 30.664-30.664 47.895-72.254 47.895-115.62-0.050782-43.352-17.297-84.91-47.949-115.56-30.652-30.656-72.215-47.898-115.56-47.949zm137.06 150.6h-124.15v-124.15c31.895 3.043 61.734 17.102 84.391 39.758s36.715 52.496 39.762 84.395zm-274.8 12.91c0.042968-34.27 12.852-67.297 35.926-92.641 23.07-25.34 54.758-41.176 88.875-44.422v137.06c0.003906 2.2812 0.60938 4.5195 1.75 6.4922l68.891 118.46h0.003906c-42.621 19.723-92.363 16.348-131.93-8.9531-39.562-25.305-63.492-69.039-63.469-116zm217.71 111.94-57.602-99.023h114.63c-3.7539 39.699-24.539 75.824-56.977 99.023zm184.14-527.76h-1054.1c-3.4219-0.003906-6.707 1.3555-9.1289 3.7734-2.4219 2.4219-3.7812 5.7031-3.7812 9.1289v848.8c0 3.4258 1.3594 6.707 3.7812 9.1289 2.4219 2.418 5.707 3.7773 9.1289 3.7734h1054.2c3.4219 0.003906 6.707-1.3555 9.1289-3.7734 2.4219-2.4219 3.7812-5.7031 3.7812-9.1289v-848.8c0-3.4258-1.3594-6.707-3.7812-9.1289-2.4219-2.418-5.707-3.7773-9.1289-3.7734zm-12.898 25.812v141.49h-1028.3v-141.49zm-1028.3 822.98v-655.68h1028.4v655.68zm923.1-710.62c11.039 0 21.625-4.3828 29.43-12.188 7.8086-7.8008 12.195-18.387 12.199-29.422 0.003907-11.039-4.375-21.625-12.176-29.438-7.8008-7.8086-18.383-12.199-29.418-12.207-11.039-0.007813-21.629 4.3672-29.441 12.164s-12.207 18.379-12.219 29.414c0 11.047 4.3828 21.641 12.188 29.453 7.8047 7.8164 18.395 12.211 29.438 12.223zm0-57.434v0.003906c4.1992 0 8.2266 1.668 11.191 4.6367 2.9688 2.9727 4.6328 7 4.625 11.199-0.003906 4.1953-1.6797 8.2227-4.6523 11.184-2.9727 2.9609-7.0039 4.6211-11.203 4.6094-4.1992-0.007813-8.2188-1.6875-11.18-4.668-2.957-2.9766-4.6133-7.0078-4.5938-11.207 0.015625-4.1836 1.6914-8.1875 4.6562-11.141 2.9609-2.9531 6.9766-4.6133 11.156-4.6133zm-134.89 57.434c11.039 0 21.625-4.3828 29.43-12.188 7.8086-7.8008 12.195-18.387 12.199-29.422 0.003906-11.039-4.375-21.625-12.176-29.438-7.8008-7.8086-18.383-12.199-29.422-12.207-11.035-0.007813-21.625 4.3672-29.438 12.164s-12.207 18.379-12.223 29.414c0 11.047 4.3867 21.641 12.191 29.453 7.8047 7.8164 18.395 12.211 29.438 12.223zm0-57.434v0.003906c4.1992 0 8.2227 1.668 11.191 4.6367 2.9648 2.9727 4.6289 7 4.625 11.199-0.003907 4.1953-1.6797 8.2227-4.6523 11.184-2.9766 2.9609-7.0039 4.6211-11.203 4.6094-4.1992-0.007813-8.2188-1.6875-11.18-4.668-2.957-2.9766-4.6133-7.0078-4.5977-11.207 0.023437-4.1797 1.6992-8.1836 4.6602-11.137 2.9648-2.9531 6.9727-4.6133 11.156-4.6172zm-134.89 57.434c11.035 0 21.621-4.3828 29.43-12.188 7.8047-7.8008 12.191-18.387 12.199-29.422 0.003907-11.039-4.3789-21.625-12.176-29.438-7.8008-7.8086-18.383-12.199-29.422-12.207-11.039-0.007813-21.629 4.3672-29.438 12.164-7.8125 7.7969-12.211 18.379-12.223 29.414 0 11.047 4.3828 21.641 12.191 29.453 7.8047 7.8164 18.391 12.211 29.438 12.223zm0-57.434v0.003906c4.1953 0 8.2227 1.668 11.191 4.6367 2.9648 2.9727 4.6289 7 4.625 11.199-0.007812 4.1953-1.6797 8.2227-4.6562 11.184-2.9727 2.9609-7.0039 4.6211-11.203 4.6094-4.1953-0.007813-8.2188-1.6875-11.176-4.668-2.9609-2.9766-4.6133-7.0078-4.5977-11.207 0.023438-4.1797 1.6953-8.1836 4.6602-11.137 2.9609-2.9531 6.9727-4.6133 11.156-4.6172zm-131.59 218.63c-12.539 0.015626-24.562 5.0078-33.43 13.875-8.8672 8.8672-13.859 20.891-13.875 33.43-0.007813 6.7422 1.4414 13.406 4.25 19.535l-60.422 51.145c-10.465-7.0469-23.309-9.6133-35.68-7.1367-12.371 2.4805-23.234 9.8047-30.176 20.34l-43.129-13.656v-1.4141-0.003906c0.019531-14.051-6.207-27.387-17-36.387-10.789-9-25.023-12.742-38.844-10.203-13.82 2.5391-25.801 11.09-32.688 23.336-6.8906 12.25-7.9766 26.926-2.9688 40.055l-56.867 42.457c-12.184-9.3203-28.133-12.148-42.777-7.582-14.645 4.5625-26.164 15.949-30.898 30.539-4.7344 14.59-2.0938 30.57 7.082 42.863s23.75 19.367 39.082 18.977c15.336-0.39062 29.527-8.1992 38.066-20.941 8.5391-12.742 10.359-28.84 4.8906-43.168l56.902-42.383v-0.003906c10.41 8 23.68 11.309 36.625 9.1289 12.941-2.1836 24.395-9.6523 31.609-20.625l43.117 13.645v1.4141l-0.003906 0.003906c-0.003906 14.309 6.4648 27.852 17.598 36.836 11.133 8.9883 25.734 12.453 39.723 9.4297 13.984-3.0234 25.848-12.215 32.273-24.996 6.4258-12.785 6.7227-27.789 0.80469-40.816l60.422-51.145h-0.003906c12.438 8.3555 28.098 10.324 42.219 5.3086 14.117-5.0195 25.023-16.43 29.395-30.762 4.3711-14.332 1.6953-29.891-7.2188-41.934-8.9141-12.043-23.008-19.152-37.992-19.16zm-389.58 234.38c-5.7031 0-11.172-2.2617-15.203-6.2891-4.0352-4.0312-6.3008-9.5-6.3008-15.199-0.003906-5.7031 2.2617-11.172 6.293-15.203s9.5-6.2969 15.203-6.293c5.6992 0 11.168 2.2656 15.199 6.3008 4.0273 4.0312 6.2891 9.5 6.2891 15.203-0.007812 5.6953-2.2734 11.152-6.3008 15.18-4.0273 4.0273-9.4844 6.293-15.18 6.3008zm129.86-96.73v-0.003906c-5.6992 0.003906-11.168-2.2578-15.203-6.2852-4.0312-4.0312-6.3008-9.4961-6.3008-15.199-0.003906-5.6992 2.2617-11.168 6.2891-15.199 4.0312-4.0312 9.4961-6.2969 15.199-6.3008 5.6992 0 11.168 2.2656 15.199 6.293 4.0312 4.0312 6.2969 9.5 6.2969 15.199-0.003906 5.6992-2.2695 11.16-6.293 15.191-4.0273 4.0273-9.4922 6.2969-15.188 6.3008zm129.85 41.086c-5.6992 0-11.168-2.2656-15.199-6.2969s-6.293-9.5-6.293-15.199c0-5.7031 2.2656-11.168 6.3008-15.199 4.0312-4.0273 9.5-6.293 15.199-6.2891 5.6992 0 11.168 2.2695 15.195 6.3008 4.0312 4.0352 6.293 9.5039 6.2891 15.203-0.007812 5.6953-2.2734 11.16-6.3008 15.188-4.0312 4.0234-9.4961 6.2891-15.191 6.293zm129.86-109.92c-5.6992 0-11.164-2.2617-15.195-6.293s-6.2969-9.4961-6.2969-15.199c0-5.6992 2.2656-11.164 6.2969-15.195s9.4961-6.2969 15.195-6.2969c5.6992 0 11.168 2.2656 15.199 6.2969 4.0273 4.0312 6.293 9.4961 6.293 15.195-0.007813 5.6992-2.2773 11.156-6.3047 15.184-4.0312 4.0273-9.4922 6.293-15.188 6.2969zm84.66 262.8c0-3.4258 1.3594-6.707 3.7812-9.1289 2.4219-2.4219 5.707-3.7812 9.1328-3.7812h168.42c7.1328 0 12.914 5.7812 12.914 12.91 0 7.1328-5.7812 12.914-12.914 12.914h-168.42c-3.4297 0-6.7188-1.3672-9.1406-3.793s-3.7773-5.7148-3.7734-9.1445zm326.4 0h0.003906c0 7.1328-5.7812 12.914-12.914 12.914h-68.254c-7.1328 0-12.914-5.7812-12.914-12.914 0-7.1289 5.7812-12.91 12.914-12.91h68.242c7.1211 0 12.898 5.7656 12.914 12.887zm-882.35-365.76c0-3.4219 1.3594-6.7031 3.7812-9.125 2.418-2.418 5.6992-3.7773 9.1211-3.7773h201.37c3.4922-0.10547 6.875 1.207 9.3828 3.6367 2.5078 2.4336 3.9219 5.7773 3.9219 9.2695 0 3.4922-1.4141 6.8359-3.9219 9.2695-2.5078 2.4297-5.8906 3.7422-9.3828 3.6367h-201.37c-3.4219 0-6.707-1.3594-9.125-3.7812-2.4219-2.4219-3.7773-5.707-3.7773-9.1289zm0 74.867c0-3.4219 1.3594-6.7031 3.7812-9.1211 2.418-2.4219 5.6992-3.7812 9.1211-3.7812h100.69c6.9766 0.21484 12.52 5.9297 12.52 12.906 0 6.9805-5.543 12.695-12.52 12.906h-100.69c-7.125 0-12.902-5.7734-12.902-12.898zm471.28 247.21h-458.4c-3.4258 0-6.707 1.3594-9.125 3.7812-2.4219 2.4219-3.7773 5.707-3.7773 9.1289v66.266c0 3.4219 1.3555 6.707 3.7773 9.1289 2.418 2.4219 5.6992 3.7852 9.125 3.7852h458.4c3.4297-0.011719 6.7148-1.3828 9.1289-3.8164 2.4141-2.4336 3.7617-5.7305 3.7461-9.1562v-66.266c-0.03125-7.0938-5.7812-12.832-12.875-12.852zm-12.898 66.266h-432.57v-40.441h432.57zm423.96 78.527c0 7.1289-5.7812 12.91-12.914 12.91h-168.42c-7.1328 0-12.914-5.7812-12.914-12.91 0-7.1328 5.7812-12.914 12.914-12.914h168.42c7.1094 0 12.879 5.7461 12.914 12.852zm-232.32 0c0 7.1289-5.7812 12.91-12.914 12.91h-68.242c-7.1328 0-12.914-5.7812-12.914-12.91 0-7.1328 5.7812-12.914 12.914-12.914h68.242c7.1094 0 12.879 5.7461 12.914 12.852zm-165.83 0c0 7.1289-5.7812 12.91-12.914 12.91h-458.4c-7.1328 0-12.914-5.7812-12.914-12.91 0-7.1328 5.7812-12.914 12.914-12.914h458.4c7.0938 0.019532 12.844 5.7578 12.875 12.852z" fill="#007335"/>
</svg>
