<?xml version="1.0" encoding="UTF-8" standalone="no"?>
<svg
   width="1200pt"
   height="1200pt"
   version="1.1"
   viewBox="0 0 1200 1200"
   id="svg4"
   sodipodi:docname="emission-source.svg"
   inkscape:version="1.1.1 (3bf5ae0d25, 2021-09-20)"
   xmlns:inkscape="http://www.inkscape.org/namespaces/inkscape"
   xmlns:sodipodi="http://sodipodi.sourceforge.net/DTD/sodipodi-0.dtd"
   xmlns="http://www.w3.org/2000/svg"
   xmlns:svg="http://www.w3.org/2000/svg">
  <defs
     id="defs8" />
  <sodipodi:namedview
     id="namedview6"
     pagecolor="#ffffff"
     bordercolor="#666666"
     borderopacity="1.0"
     inkscape:pageshadow="2"
     inkscape:pageopacity="0.0"
     inkscape:pagecheckerboard="0"
     inkscape:document-units="pt"
     showgrid="false"
     inkscape:zoom="0.545625"
     inkscape:cx="800"
     inkscape:cy="800"
     inkscape:window-width="2560"
     inkscape:window-height="1351"
     inkscape:window-x="2551"
     inkscape:window-y="-9"
     inkscape:window-maximized="1"
     inkscape:current-layer="svg4" />
  <path
     d="m 973.13642,729.50157 c -16.6698,-25.41659 -57.07823,-32.09294 -88.23598,-14.57911 -9.00422,5.06424 -17.74764,10.11498 -26.23784,15.14968 v -0.003 c -2.98714,-17.75102 -11.57263,-34.08489 -24.49996,-46.61382 -12.92732,-12.52556 -29.52199,-20.5929 -47.36163,-23.01951 -9.40008,-21.57536 -24.56917,-40.14425 -43.83777,-53.6624 -19.26775,-13.51815 -41.89225,-21.46057 -65.3802,-22.95367 V 514.5561 l 32.10644,-32.10645 c 14.85005,4.04548 30.14491,6.24126 45.53514,6.54131 29.09322,0.31982 56.9896,-11.57264 76.90304,-32.78928 35.33406,-35.32477 63.78751,-102.17108 50.25332,-152.86414 h -0.003 c -0.84404,-3.15198 -3.30695,-5.61152 -6.45556,-6.45556 -50.70487,-13.53756 -117.54105,14.91926 -152.87258,50.25332 -39.258,39.28754 -36.44228,81.96391 -26.25134,122.47025 l -19.21235,19.22104 V 379.93695 c 29.79547,-17.93586 56.28736,-41.55886 56.28736,-87.88148 -0.16485,-17.09519 -5.36759,-33.75824 -14.9623,-47.90942 -11.95499,-20.7119 -24.26616,-42.11592 -2.53212,-113.10984 1.07809,-3.49483 -0.0363,-7.29301 -2.83218,-9.64738 -2.79259,-2.35411 -6.72599,-2.81234 -9.98668,-1.15726 -31.58568,17.58304 -57.19724,44.19986 -73.55643,76.43797 -16.48495,29.17848 -25.72382,61.89179 -26.9367,95.385 0,46.32684 26.49189,69.95997 56.28736,87.89836 v 129.6868 c -0.12529,0.87037 -0.12529,1.754 0,2.62445 v 5.1895 l -14.9488,-14.95892 c 11.60556,-45.56805 14.93867,-93.49435 -29.11939,-137.5617 -39.59731,-39.5973 -114.46875,-71.48937 -171.21358,-56.33969 v 0.003 c -3.15198,0.84074 -5.61481,3.30366 -6.45556,6.45556 -15.14968,56.75158 16.75589,131.61965 56.33969,171.20514 22.25144,23.70234 53.42522,36.98247 85.93175,36.61025 17.45138,-0.34949 34.79387,-2.8651 51.62488,-7.49086 l 27.8432,27.85333 v 40.82032 h -0.003 c -22.80597,1.99143 -44.65818,10.06265 -63.28615,23.36979 -18.62797,13.31051 -33.34297,31.36791 -42.61728,52.30096 -22.59749,-0.39895 -44.41087,8.28873 -60.54301,24.11761 -16.13215,15.82913 -25.23512,37.4737 -25.26551,60.07541 0,2.33099 0.10551,4.67522 0.29673,7.00621 l -83.69841,34.6487 -6.17204,-14.91926 v -0.003 c -0.92322,-2.23207 -2.69697,-4.0092 -4.93241,-4.9357 -2.23535,-0.9265 -4.74443,-0.9265 -6.97979,0 l -98.11969,40.65236 v -0.003 c -4.64551,1.92543 -6.85782,7.25352 -4.93569,11.90266 l 4.1147,9.93689 -51.75993,21.42765 v 0.003 c -4.64881,1.92214 -6.85783,7.25014 -4.93899,11.89929 l 75.3306,181.98355 c 0.9265,2.2353 2.70354,4.0092 4.94228,4.929 2.23535,0.9232 4.74772,0.9133 6.97979,-0.023 l 51.69747,-21.3981 3.92344,9.4955 c 1.9288,4.6521 7.26338,6.8578 11.91194,4.929 l 98.11968,-40.6524 c 4.64881,-1.92541 6.85783,-7.25012 4.93899,-11.89926 l -1.78371,-4.30596 c 35.57208,5.51927 71.53579,8.09418 107.53074,7.70187 20.37935,0.92321 40.79078,-0.49126 60.84686,-4.2202 68.26177,-28.25594 230.51586,-120.94254 309.33234,-180.67527 49.53504,-37.50747 34.57274,-69.10581 28.85605,-77.88214 z M 735.93576,360.0398 c 30.43779,-30.44791 86.37909,-55.35723 130.0413,-46.73873 8.61849,43.67908 -16.30011,99.59675 -46.73874,130.04129 -29.25781,29.25781 -59.38921,31.65151 -96.90427,23.40271 36.03293,-47.70516 79.33642,-89.4514 128.32789,-123.711 4.1147,-2.89809 5.10054,-8.57882 2.20573,-12.69352 -2.89809,-4.11469 -8.57882,-5.10053 -12.69352,-2.20573 -48.92817,34.24272 -92.37177,75.7197 -128.84275,123.01044 -6.74245,-34.84958 -3.13544,-63.36548 24.60208,-91.10571 z M 506.8379,473.40286 c -34.71116,-34.71116 -63.08189,-98.66832 -52.85803,-148.39917 49.72579,-10.22387 113.69223,18.13673 148.39917,52.85802 32.15963,32.15963 35.87172,65.1692 27.66174,105.73293 h 0.003 c -39.34325,-51.71097 -86.7167,-96.7861 -140.3217,-133.5103 -4.10482,-2.81892 -9.71322,-1.82329 -12.59477,2.23865 -2.88156,4.06195 -1.9716,9.68368 2.04418,12.62769 53.8599,36.75542 101.19199,82.26101 140.03473,134.63287 -43.63942,9.96052 -78.48562,7.66228 -112.37553,-26.18466 z M 621.28133,292.03547 c 1.33856,-27.54019 8.37119,-54.49968 20.64944,-79.18786 12.28163,-24.68481 29.54479,-46.55727 50.7015,-64.23569 -14.67533,61.03424 -1.38144,84.0546 10.48805,104.62724 v 0.003 c 7.93921,11.39792 12.30104,24.90257 12.52556,38.79294 0,35.5552 -17.93586,54.4406 -47.18017,72.11312 -29.25781,-17.67223 -47.18354,-36.55679 -47.18354,-72.11283 z m -69.43245,385.86148 c 2.20573,0 4.44109,0.11539 6.65669,0.33629 4.10812,0.40884 7.97551,-1.99472 9.433,-5.85552 10.47116,-27.80354 31.83635,-50.1284 59.15203,-61.80908 27.31568,-11.68489 58.21599,-11.71443 85.55193,-0.0824 27.33931,11.63172 48.7467,33.92029 59.26767,61.70103 1.26935,3.34645 4.37516,5.64123 7.94588,5.8687 16.1026,1.05505 31.26578,7.96892 42.62066,19.43572 11.35487,11.46713 18.11732,26.69615 19.01369,42.81225 -5.85882,3.51796 -11.64522,7.0128 -17.35515,10.48805 -19.22133,11.60555 -39.03687,23.65254 -60.90933,35.98735 h 0.003 c -4.7609,-9.11986 -12.58127,-16.26719 -22.0936,-20.18438 -86.69138,-33.32018 -200.4005,-42.4029 -205.19465,-42.77259 -1.44077,-0.1154 -2.88493,0.11209 -4.2202,0.666 l -45.88456,18.9909 c 0.12529,-17.43112 7.13476,-34.10429 19.50155,-46.3893 12.3635,-12.285 29.0831,-19.1825 46.51422,-19.19179 z m -252.62971,350.20925 -68.40018,-165.14497 43.32965,-17.93586 68.31494,165.16183 z m 67.52323,-6.9831 -83.34899,-201.43025 81.23889,-33.67552 5.98078,14.46432 c 0.0626,0.15826 0.0857,0.31651 0.14837,0.46488 0.0626,0.14836 0.15825,0.28355 0.2209,0.42202 l 77.01868,186.06869 z M 933.25382,792.84393 c -77.8433,58.99673 -237.96873,150.50083 -305.23874,178.33728 -12.66061,4.66197 -127.82147,5.10712 -169.98128,-7.21722 L 391.18665,802.38091 536.68232,742.17045 c 16.16168,1.42432 120.10694,11.51946 197.91902,41.42043 7.66886,3.63663 13.38225,10.41884 15.66707,18.59168 l 0.0857,0.25387 c 0.43191,1.25618 0.83415,2.55187 1.18031,3.90369 v -0.003 c 3.93998,12.86149 1.87934,26.81178 -5.61481,37.98181 -31.9579,38.55239 -81.3773,24.84686 -138.59142,8.98734 -9.11648,-2.53212 -18.54948,-5.13674 -28.04493,-7.57661 l 0.003,0.003 c -4.80377,-1.06822 -9.59083,1.86609 -10.81385,6.63365 -1.22318,4.76748 1.55954,9.64401 6.28743,11.01895 9.32749,2.39361 18.66426,4.97848 27.70478,7.49085 28.25593,9.33087 57.60237,14.95893 87.30753,16.74239 27.09791,1.20343 53.15513,-10.54713 70.19377,-31.65151 10.85014,-14.99185 14.4314,-34.05197 9.75879,-51.96081 23.09548,-12.95771 43.81751,-25.49931 63.88373,-37.6653 19.15887,-11.60556 38.9744,-23.60021 60.2535,-35.56533 24.41471,-13.71566 53.946,-6.73257 64.06098,8.69446 9.62374,14.73779 0.64292,34.18363 -24.6654,53.37542 z"
     fill="#007335"
     id="path2"
     style="stroke-width:0.84404" />
</svg>
