<?xml version="1.0" encoding="UTF-8" standalone="no"?>
<svg
   id="Layer_28"
   data-name="Layer 28"
   viewBox="0 0 16 16.000001"
   version="1.1"
   sodipodi:docname="GreenedgeFoxHeadIcon.svg"
   width="16"
   height="16"
   inkscape:version="1.1.1 (3bf5ae0d25, 2021-09-20)"
   xmlns:inkscape="http://www.inkscape.org/namespaces/inkscape"
   xmlns:sodipodi="http://sodipodi.sourceforge.net/DTD/sodipodi-0.dtd"
   xmlns="http://www.w3.org/2000/svg"
   xmlns:svg="http://www.w3.org/2000/svg">
  <sodipodi:namedview
     id="namedview105"
     pagecolor="#ffffff"
     bordercolor="#666666"
     borderopacity="1.0"
     inkscape:pageshadow="2"
     inkscape:pageopacity="0.0"
     inkscape:pagecheckerboard="0"
     showgrid="false"
     inkscape:zoom="31.004034"
     inkscape:cx="16.078553"
     inkscape:cy="8.8859404"
     inkscape:window-width="1920"
     inkscape:window-height="1009"
     inkscape:window-x="1912"
     inkscape:window-y="1072"
     inkscape:window-maximized="1"
     inkscape:current-layer="Layer_28" />
  <defs
     id="defs4">
    <style
       id="style2">.cls-1{fill:#fff;}.cls-2{fill:#c57554;}.cls-3{fill:#6e3a2b;}.cls-4{fill:#e3d1bc;}.cls-5{fill:#e8e3dd;}.cls-6{fill:#111;}.cls-7{fill:#f2f0ed;}.cls-8{fill:#e8e1d8;}.cls-9{fill:#262626;}.cls-10{fill:#965454;}.cls-11{fill:#b0a392;}.cls-12{fill:#995b41;}.cls-13{fill:#562d22;}.cls-14{fill:#0d0d0d;}.cls-15{fill:#744241;}</style>
  </defs>
  <path
     class="cls-1"
     d="m 7.4298257,14.527899 c -0.7534949,0 -1.4059287,-0.129754 -2.1811022,-0.433893 C 4.4507554,13.780781 3.479357,13.2581 2.1002085,12.398921 1.4865095,12.016356 0.39635686,11.469605 0.38535805,11.464186 A 0.47820705,0.47820705 0 0 1 0.54970139,10.561012 3.7595044,3.7595044 0 0 0 1.0226485,10.465371 0.47820705,0.47820705 0 0 1 1.2796048,9.7909391 10.638672,10.638672 0 0 0 2.606151,9.1965285 C 2.6134972,9.1276697 2.6184256,9.0506752 2.6243212,8.959816 2.6429749,8.6705001 2.6660828,8.3108888 2.7979105,7.8121186 2.2559419,7.1593668 1.8746519,6.377498 1.6651974,5.4848451 1.4060093,4.3817808 1.4039366,3.0949254 1.6589671,1.6601448 A 0.47820705,0.47820705 0 0 1 2.3624103,1.3253998 C 3.3403431,1.8703964 4.1544114,2.4552433 4.780544,3.0641607 A 6.7717306,6.7717306 0 0 1 5.589192,4.0017657 8.2431737,8.2431737 0 0 1 6.3257897,3.5512942 C 6.9633991,3.2058694 7.4462291,3.0485394 7.4664729,3.0420041 A 0.47820705,0.47820705 0 0 1 7.9925012,3.7888037 C 7.9089779,3.897357 7.8302297,4.0060693 7.7569046,4.1138247 a 5.5425792,5.5425792 0 0 1 0.974586,-0.089428 7.9154424,7.9154424 0 0 1 1.023363,-0.9071584 C 10.488902,2.5700101 11.378207,2.0918027 12.397744,1.696166 a 0.47820705,0.47820705 0 0 1 0.647492,0.3870286 c 0.06137,0.4965385 0.07811,0.9489228 0.051,1.3829751 a 0.45812236,0.45812236 0 0 1 -0.08209,0.2450016 0.47820705,0.47820705 0 0 1 0.03013,0.25074 c -0.08655,0.5787897 -0.26429,1.1188446 -0.529216,1.6078909 a 7.9050811,7.9050811 0 0 1 0.761625,0.2775192 7.3573747,7.3573747 0 0 1 2.614197,1.8731373 0.47820705,0.47820705 0 0 1 -0.538142,0.761465 c -1.167459,-0.4809163 -2.23673,-0.724643 -3.17832,-0.724643 -0.0797,0 -0.159403,0.00177 -0.237988,0.0053 0.04352,0.1216239 0.08751,0.2496241 0.131348,0.3825658 0.190166,0.5768769 0.28262,1.1261778 0.318804,1.3796271 0.219657,0.2391033 0.439313,0.5661974 0.607801,0.9063614 0.179647,0.362322 0.371089,0.886437 0.263334,1.325272 -0.08624,0.351482 -0.315936,0.70137 -0.682402,1.038665 -0.342397,0.315936 -0.78968,0.608439 -1.328619,0.86938 -1.119482,0.541969 -2.4473045,0.847862 -3.7389414,0.863164 z"
     id="path6"
     style="stroke-width:0.0159402" />
  <path
     class="cls-1"
     d="M 15.772786,7.826943 A 7.1963784,7.1963784 0 0 0 13.214378,5.9938163 7.8266553,7.8266553 0 0 0 12.276932,5.6656066 c 0.310675,-0.5172603 0.515507,-1.0973258 0.609714,-1.727443 a 0.3188047,0.3188047 0 0 0 -0.06966,-0.2502611 0.29616956,0.29616956 0 0 0 0.120189,-0.2311341 c 0.02646,-0.4243283 0.01004,-0.8673076 -0.05021,-1.3541232 A 0.3188047,0.3188047 0 0 0 12.455304,1.8447328 C 11.449315,2.2349499 10.572602,2.7055053 9.8498722,3.2447633 A 7.7196963,7.7196963 0 0 0 8.8002081,4.1836432 H 8.7571725 A 5.4209551,5.4209551 0 0 0 7.4170768,4.3506972 6.5036157,6.5036157 0 0 1 7.8659544,3.6915682 0.3188047,0.3188047 0 0 0 7.5152692,3.1937547 C 7.495667,3.200171 7.0260638,3.3531575 6.4016841,3.6914091 A 8.0316468,8.0316468 0 0 0 5.5487219,4.2247688 6.4695036,6.4695036 0 0 0 4.6692996,3.1784524 C 4.0532062,2.5795778 3.2506146,2.0031786 2.2847966,1.4651956 A 0.3188047,0.3188047 0 0 0 1.8156751,1.6883588 C 1.5644571,3.1016197 1.566051,4.3663185 1.8201386,5.44866 2.0308689,6.3456174 2.4186951,7.1271673 2.9735744,7.7730657 2.9662282,7.799047 2.9595516,7.8234382 2.9531725,7.8471877 2.8242154,8.3344803 2.8014208,8.6870783 2.7832488,8.9704958 2.7749727,9.0980181 2.7681101,9.2037017 2.7539199,9.2985455 a 10.829636,10.829636 0 0 1 -1.4186803,0.6423915 0.3188047,0.3188047 0 0 0 -0.07667,0.557908 q 0.031877,0.02279 0.063763,0.04448 A 4.1564163,4.1564163 0 0 1 0.56676499,10.719621 0.3188047,0.3188047 0 0 0 0.4567778,11.321205 c 0.0110007,0.0054 1.1107154,0.557909 1.7276021,0.941909 1.3708604,0.853759 2.3339696,1.372614 3.1225328,1.682014 0.7555676,0.296488 1.3904672,0.422894 2.1229204,0.422894 h 0.075554 c 1.2686834,-0.01498 2.5725939,-0.315936 3.6715139,-0.847224 0.526028,-0.254087 0.959603,-0.537664 1.291159,-0.842919 0.343194,-0.316254 0.556952,-0.639044 0.635697,-0.959443 0.09564,-0.392129 -0.08352,-0.877988 -0.251377,-1.216559 C 12.682297,10.158684 12.453874,9.8247362 12.236449,9.5966317 A 8.1658634,8.1658634 0 0 0 11.917644,8.195007 C 11.839217,7.9571786 11.770197,7.7646213 11.714725,7.6174922 11.865201,7.6044272 12.019502,7.59789 12.175716,7.59789 c 0.962472,0 2.052306,0.2478713 3.239057,0.7367577 a 0.3188047,0.3188047 0 0 0 0.358655,-0.5076964 z"
     id="path8"
     style="stroke-width:0.0159402" />
  <path
     d="M 15.772786,7.826943 A 7.1963784,7.1963784 0 0 0 13.214378,5.9938163 7.8266553,7.8266553 0 0 0 12.276932,5.6656066 c 0.310675,-0.5172603 0.515507,-1.0973258 0.609714,-1.727443 a 0.3188047,0.3188047 0 0 0 -0.06966,-0.2502611 0.29616956,0.29616956 0 0 0 0.120189,-0.2311341 c 0.02646,-0.4243283 0.01004,-0.8673076 -0.05021,-1.3541232 A 0.3188047,0.3188047 0 0 0 12.455304,1.8447328 C 11.449315,2.2349499 10.572602,2.7055053 9.8498722,3.2447633 A 7.7196963,7.7196963 0 0 0 8.8002081,4.1836432 H 8.7571725 A 5.4209551,5.4209551 0 0 0 7.4170768,4.3506972 6.5036157,6.5036157 0 0 1 7.8659544,3.6915682 0.3188047,0.3188047 0 0 0 7.5152692,3.1937547 C 7.495667,3.200171 7.0260638,3.3531575 6.4016841,3.6914091 A 8.0316468,8.0316468 0 0 0 5.5487219,4.2247688 6.4695036,6.4695036 0 0 0 4.6692996,3.1784524 C 4.0532062,2.5795778 3.2506146,2.0031786 2.2847966,1.4651956 A 0.3188047,0.3188047 0 0 0 1.8156751,1.6883588 C 1.5644571,3.1016197 1.566051,4.3663185 1.8201386,5.44866 2.0308689,6.3456174 2.4186951,7.1271673 2.9735744,7.7730657 2.9662282,7.799047 2.9595516,7.8234382 2.9531725,7.8471877 2.8242154,8.3344803 2.8014208,8.6870783 2.7832488,8.9704958 2.7749727,9.0980181 2.7681101,9.2037017 2.7539199,9.2985455 a 10.829636,10.829636 0 0 1 -1.4186803,0.6423915 0.3188047,0.3188047 0 0 0 -0.07667,0.557908 q 0.031877,0.02279 0.063763,0.04448 A 4.1564163,4.1564163 0 0 1 0.56676499,10.719621 0.3188047,0.3188047 0 0 0 0.4567778,11.321205 c 0.0110007,0.0054 1.1107154,0.557909 1.7276021,0.941909 1.3708604,0.853759 2.3339696,1.372614 3.1225328,1.682014 0.7555676,0.296488 1.3904672,0.422894 2.1229204,0.422894 h 0.075554 c 1.2686834,-0.01498 2.5725939,-0.315936 3.6715139,-0.847224 0.526028,-0.254087 0.959603,-0.537664 1.291159,-0.842919 0.343194,-0.316254 0.556952,-0.639044 0.635697,-0.959443 0.09564,-0.392129 -0.08352,-0.877988 -0.251377,-1.216559 C 12.682297,10.158684 12.453874,9.8247362 12.236449,9.5966317 A 8.1658634,8.1658634 0 0 0 11.917644,8.195007 C 11.839217,7.9571786 11.770197,7.7646213 11.714725,7.6174922 11.865201,7.6044272 12.019502,7.59789 12.175716,7.59789 c 0.962472,0 2.052306,0.2478713 3.239057,0.7367577 a 0.3188047,0.3188047 0 0 0 0.358655,-0.5076964 z"
     id="path10"
     style="stroke-width:0.0159402" />
  <path
     class="cls-2"
     d="M 8.2668476,5.4097662 C 9.1700213,3.9333821 10.65868,2.8835581 12.570711,2.142018 c 0.05484,0.4431383 0.0746,0.8767126 0.04782,1.2975353 0,0.00957 -0.494147,0.2327269 -0.494147,0.2327269 0,0 0.446327,0.223164 0.446327,0.2190194 -0.16817,1.1255399 -0.713486,2.1469899 -1.865009,3.000908"
     id="path12"
     style="stroke-width:0.0159402" />
  <path
     class="cls-3"
     d="M 12.275498,3.924933 C 12.163916,3.8697809 12.052334,3.8143079 12.052334,3.8143079 a 0.15940235,0.15940235 0 0 1 0.0058,-0.2878809 C 12.208096,3.458684 12.3726,3.3829654 12.464097,3.3394481 a 6.6513816,6.6513816 0 0 0 -0.02933,-0.9723543 q -1.042491,0.4220975 -1.85624,0.9501977 a 0.41699654,0.41699654 0 0 0 0.07874,0.036182 c -0.03188,0.031877 -0.09564,0.1275223 -0.04782,0.1434625 0.09564,0.031877 0.223164,-0.079701 0.270984,0 0.03188,0.063763 0.111582,0.1434616 0.191283,0.1115811 v -0.063763 c 0.382566,0.079701 0.717311,0.2869241 0.988295,0.5579079 0.107915,-0.019602 0.214396,-0.033634 0.320079,-0.043361 0.0047,-0.025024 0.0097,-0.049889 0.01402,-0.07508 z"
     id="path14"
     style="stroke-width:0.0159402" />
  <path
     class="cls-4"
     d="M 12.52289,2.2695402 C 11.285291,2.7842498 9.9753217,4.5517035 8.9203972,6.3821205 l 1.0520558,0.844833 c 1.786263,-0.826661 2.350866,-2.0301484 2.598258,-3.3315093 -0.03746,-0.089902 -0.295373,-0.157809 -0.526028,-0.223164 0.23496,-0.034434 0.440588,-0.080975 0.573848,-0.2072227 0.07173,-0.3946805 -0.01594,-0.8129515 -0.09564,-1.1955173 z"
     id="path16"
     style="stroke-width:0.0159402" />
  <path
     d="M 12.729157,2.1224111 A 0.15940235,0.15940235 0 0 0 12.513326,1.9932956 C 11.520249,2.3787305 10.656926,2.8424316 9.945195,3.3724445 9.1904251,3.9352949 8.5797539,4.5926701 8.1308772,5.3265581 A 0.1594099,0.1594099 0 1 0 8.4028179,5.4929742 C 9.1107237,4.3345969 10.199761,3.4105424 11.714401,2.6847826 10.694226,3.4817947 9.7193222,4.8993601 8.996751,6.1245262 a 0.18666015,0.18666015 0 0 0 0.098988,0.083207 C 9.9662357,4.7287985 11.206864,2.9615048 12.436335,2.3787296 a 6.6297029,6.6297029 0 0 1 0.02837,0.9619934 c -0.0915,0.043677 -0.256001,0.1192331 -0.405998,0.1869788 a 0.15940235,0.15940235 0 0 0 -0.0058,0.287881 c 0,0 0.111581,0.055468 0.223163,0.1106251 l 0.119233,0.058816 C 12.19768,5.1108827 11.613311,6.0212296 10.61067,6.7640447 a 0.15940235,0.15940235 0 1 0 0.189688,0.2561594 C 11.908524,6.1991225 12.539279,5.1832518 12.729127,3.9148874 A 0.15940235,0.15940235 0 0 0 12.6244,3.7408201 c -0.01785,-0.008 -0.06599,-0.031877 -0.129594,-0.062647 0.04654,-0.021676 0.08544,-0.040013 0.115725,-0.05452 0.09437,-0.045267 0.16291,-0.078102 0.167532,-0.1753422 0.02582,-0.4149243 0.0099,-0.8486576 -0.04894,-1.3259092 z"
     id="path18"
     style="stroke-width:0.0159402" />
  <path
     class="cls-4"
     d="M 3.1627841,9.6186256 C 2.7236304,9.866337 2.1021212,10.067183 1.6439986,10.251612 1.872582,10.355701 2.336124,10.455807 2.7097628,10.524349 Z"
     id="path20"
     style="stroke-width:0.0159402" />
  <path
     d="m 2.7993472,10.861326 a 0.16625665,0.16625665 0 0 1 -0.026465,-0.0022 C 2.1131163,10.747513 1.66137,10.592574 1.3511734,10.368932 A 0.15940235,0.15940235 0 0 1 1.3894293,10.089978 11.134094,11.134094 0 0 0 3.463732,9.0683692 0.15940235,0.15940235 0 0 1 3.6910395,9.274795 l -0.7491904,1.498381 a 0.15940235,0.15940235 0 0 1 -0.1425056,0.08815 z m -0.984947,-0.593295 c 0.2284234,0.10409 0.5217238,0.187776 0.8953626,0.256159 L 3.1627841,9.6184657 A 11.430104,11.430104 0 0 1 1.8144002,10.268031 Z"
     id="path22"
     style="stroke-width:0.0159402" />
  <path
     class="cls-2"
     d="m 0.59959497,11.036669 c 0,0 1.52340803,-0.159403 2.23163273,-1.1158169 C 3.2362691,9.3736244 2.9807467,8.9885088 3.2616135,7.928323 3.5737238,6.7500209 4.2213751,5.9729345 4.584653,5.5372884 5.7973864,4.0822631 7.6132979,3.4969381 7.6132979,3.4969381 7.2489042,3.9703631 6.9756886,4.4329483 6.8003455,4.8837388 8.3943689,4.259041 9.8380765,4.4649889 11.215791,5.0431406 10.622655,5.1628518 10.124045,5.3488747 9.7652294,5.6329292 12.292713,5.6807537 14.179559,6.5284517 15.535595,8.039905 13.932645,7.3795011 12.50424,7.1405568 11.263612,7.3544748 c 0,0 0.140912,0.3042992 0.350685,0.9404738 A 7.7161894,7.7161894 0 0 1 11.933102,9.74551 c 0.414445,0.382565 0.988295,1.379627 0.860772,1.896888 -0.261739,1.065764 -2.65644,2.375095 -5.292158,2.406975 C 6.1627361,14.065311 5.0150396,13.650868 2.3530203,11.993083 1.714455,11.595215 0.59959497,11.036669 0.59959497,11.036669 Z"
     id="path24"
     style="stroke-width:0.0159402" />
  <path
     class="cls-4"
     d="m 3.1603933,9.643492 c -0.049573,0.1182763 -0.1053647,0.2427699 -0.2011663,0.372205 -0.4941468,0.66662 -1.3400948,0.96534 -1.8697887,1.092703 0.3844776,0.199731 0.9519505,0.502755 1.3477469,0.749191 2.4855604,1.547797 3.6708767,2.032539 4.996785,2.032539 h 0.065837 c 1.1999808,-0.01435 2.4318423,-0.298401 3.4689138,-0.799721 0.913694,-0.441864 1.553694,-1.011249 1.670218,-1.485949 0.07365,-0.299517 -0.151592,-0.835587 -0.426241,-1.259279 -0.152071,0.05452 -0.295533,0.182038 -1.172246,0.182038 -0.373479,0 -0.572095,-0.12003 -0.78936,-0.31227 -0.09708,-0.08576 0.07715,-0.206106 -0.05451,-0.2779966 C 9.9444064,9.7993872 9.3289537,9.634087 8.7300791,9.6533749 7.1679362,9.7011995 6.7694301,10.750382 5.2072873,10.622861 3.6451445,10.495338 3.8195307,9.5861072 3.1604017,9.643492 Z"
     id="path26"
     style="stroke-width:0.0159402" />
  <path
     d="m 7.4298257,14.209094 c -0.7101376,0 -1.3318066,-0.124493 -2.0650577,-0.411895 C 4.5856099,13.491465 3.6306297,12.976754 2.2682184,12.128256 1.6432017,11.739154 0.53870258,11.184594 0.52770377,11.179175 a 0.15940235,0.15940235 0 0 1 0.0549941,-0.301112 C 0.60341592,10.875831 2.0472871,10.711329 2.7027496,9.8260074 2.9051898,9.5524738 2.9190583,9.3369614 2.9418528,8.9800598 2.9595488,8.7036565 2.9817082,8.3596656 3.1068341,7.8875164 3.4280295,6.6751019 4.1003891,5.8685258 4.4617542,5.4351114 5.104464,4.6640824 5.9123151,4.1374171 6.4773963,3.8312051 7.0890234,3.4998068 7.5453923,3.3514038 7.5640422,3.3451874 A 0.15940235,0.15940235 0 0 1 7.7393853,3.5940137 C 7.473343,3.9399174 7.2576712,4.2794439 7.0957186,4.6087694 A 5.3383847,5.3383847 0 0 1 9.098768,4.3537258 c 0.6992988,0.043677 1.411986,0.2212502 2.178553,0.5429246 a 0.15940235,0.15940235 0 0 1 -0.0306,0.3035014 c -0.375074,0.075712 -0.690372,0.1737492 -0.951473,0.29617 1.051259,0.069017 2.009905,0.2854893 2.856172,0.6451016 A 7.0411206,7.0411206 0 0 1 15.654033,7.9342214 0.15940235,0.15940235 0 0 1 15.474705,8.18799 C 13.976324,7.5706245 12.637344,7.333593 11.489647,7.4821561 c 0.06376,0.1565331 0.159402,0.4088669 0.275448,0.7636967 a 7.9246876,7.9246876 0 0 1 0.318804,1.4250563 c 0.216149,0.2142369 0.451587,0.5537639 0.624379,0.9025369 0.156055,0.314819 0.324224,0.762421 0.239104,1.107687 -0.143463,0.581659 -0.813909,1.200139 -1.841257,1.696838 -1.078197,0.521405 -2.3580394,0.816777 -3.6037683,0.831601 z M 1.0894383,11.1084 c 0.3844776,0.199731 0.9519505,0.502755 1.3477469,0.749191 2.4855604,1.547797 3.6708767,2.032539 4.996785,2.032539 h 0.065837 C 8.699788,13.87578 9.9316495,13.591729 10.968721,13.090409 11.882415,12.648545 12.522415,12.07916 12.638939,11.60446 12.746535,11.166582 12.215406,10.223239 11.824871,9.8626704 A 0.15940235,0.15940235 0 0 1 11.774499,9.7617683 7.6412704,7.6412704 0 0 0 11.462867,8.3450011 C 11.25931,7.7276356 11.120312,7.4244523 11.118877,7.4214236 a 0.15940235,0.15940235 0 0 1 0.117639,-0.223163 C 12.307221,7.0136725 13.53717,7.1588888 14.900379,7.6296032 13.589294,6.4500262 11.864561,5.8326606 9.7622035,5.7931289 A 0.15940235,0.15940235 0 0 1 9.6665627,5.5087555 C 9.9290985,5.3015318 10.265277,5.1365506 10.68594,5.0109411 9.3275133,4.5373571 8.1001153,4.5464431 6.858849,5.0331006 A 0.15940235,0.15940235 0 0 1 6.6516263,4.8258769 C 6.7753229,4.5085071 6.9482743,4.1807763 7.1676117,3.8471463 6.5543907,4.1222756 5.4938869,4.6953269 4.7069176,5.6394663 4.3372634,6.0829245 3.718623,6.8251016 3.4157586,7.9692915 3.2987572,8.4113139 3.2785134,8.7245401 3.2606603,9.0007844 3.2367527,9.3728293 3.2177828,9.6669263 2.9593898,10.015858 2.4655609,10.682319 1.6188161,10.981039 1.0894411,11.108402 Z"
     id="path28"
     style="stroke-width:0.0159402" />
  <path
     class="cls-2"
     d="M 3.7398209,8.0877258 C 2.06769,6.656133 1.6575481,4.4004308 2.1298573,1.7435121 3.9789242,2.773251 5.2487235,3.9536259 5.764231,5.3300648"
     id="path30"
     style="stroke-width:0.0159402" />
  <path
     class="cls-3"
     d="M 2.6877652,5.7102398 C 2.8312277,5.681227 2.7834069,4.2456505 2.9587491,3.5292966 3.405076,3.608998 3.7557612,3.8959221 4.1542673,4.1190851 c 0.1753422,0.095642 0.2709838,-0.063763 0.2709838,-0.2550435 0,-0.079701 0.1095093,-0.038098 0.1833123,-0.058184 Q 3.7318508,2.8507188 2.2494084,1.9947285 1.9331545,3.9663757 2.3090241,5.4441956 c 0.020244,0.014823 0.028371,0.061689 0.060257,0.045751 0.031877,-0.015938 0.1751831,0.2488272 0.3184857,0.2202942 z"
     id="path32"
     style="stroke-width:0.0159402" />
  <path
     class="cls-4"
     d="m 2.1776781,1.9188548 c -0.2231639,1.7534254 -0.01897,3.5240668 2.0881702,5.2283973 0,0 0.050689,-1.0168275 0.1434626,-1.0998766 0.052604,-0.047824 0.4959006,0.1141318 0.6057287,0.031877 C 5.3338443,5.8401491 4.4411914,2.6042815 2.1776781,1.9188511 Z"
     id="path34"
     style="stroke-width:0.0159402" />
  <path
     d="M 5.6049881,4.6184933 C 5.3437273,4.1595737 4.99352,3.7156376 4.5583518,3.2924251 3.952623,2.7034335 3.1613493,2.1353237 2.2073269,1.6041945 A 0.15940235,0.15940235 0 0 0 1.9728462,1.7157763 C 1.7254538,3.107518 1.7264097,4.3511751 1.9755428,5.411679 2.1987058,6.3615577 2.6223972,7.1721184 3.23785,7.8285377 3.3626616,7.9616384 3.8834295,8.2227393 3.9008036,8.188468 3.9181741,8.154192 3.5399174,7.6895387 3.4041061,7.538903 2.559274,6.6011389 2.1245838,5.3501496 2.1052959,3.8010774 a 4.7426981,4.7426981 0 0 0 0.1818784,0.7702321 c 0.3172108,0.9682107 0.9511536,1.8269103 1.9384923,2.6255163 a 0.06376094,0.06376094 0 0 0 0.066153,0.00865 0.06376094,0.06376094 0 0 0 0.037614,-0.054994 C 4.351435,6.7106891 4.4022818,6.2001231 4.4486659,6.1020906 v 0 c 0.034276,0 0.1130168,0.014981 0.1724734,0.026297 0.2026012,0.038572 0.3521201,0.061373 0.4315026,0.00186 C 5.1712371,6.0411446 5.1482839,5.7505514 5.1079519,5.522606 5.0223551,5.0385014 4.7539192,4.2561546 4.2567428,3.5117458 4.218803,3.4549942 4.1781573,3.3964972 4.1347999,3.3364027 Q 4.8793687,4.011153 5.3033791,4.735318 C 5.4283506,4.9490761 5.7635735,5.5077819 5.8193645,5.47877 5.8751583,5.4497573 5.7275466,4.8335095 5.6049686,4.6184757 Z m -0.62167,0.9262864 c 0.061215,0.3468596 0.015938,0.4665707 -0.00623,0.4834679 C 4.9367582,6.0585343 4.7475485,6.0224822 4.6460085,6.003066 4.4843749,5.972305 4.4110498,5.9603465 4.3670545,5.9999043 4.3402735,6.023812 4.2903846,6.068447 4.2395332,6.6225293 4.2258265,6.7717302 4.2157836,6.9186994 4.2095626,7.0183257 2.3267023,5.4486907 2.0783531,3.8183242 2.1936007,2.3774863 q 0.02375,-0.1823564 0.053237,-0.3693357 c 0.021676,0.00734 0.043194,0.014664 0.064721,0.022476 A 12.066758,12.066758 0 0 1 3.5708372,2.86717 c 0.8392536,0.854556 1.299767,2.0387565 1.412145,2.6776407 z"
     id="path36"
     style="stroke-width:0.0159402" />
  <path
     class="cls-5"
     d="m 6.5921668,12.787703 c 0.2333649,0.04782 0.4914371,0.05117 0.7665655,0.05021 -0.089744,0.156693 -0.3286876,0.419228 -0.5738482,0.66949 -0.091018,-0.246755 -0.1656192,-0.489366 -0.1927173,-0.719702 z"
     id="path38"
     style="stroke-width:0.0159402" />
  <path
     d="m 6.7844052,13.571166 a 0.06264513,0.06264513 0 0 1 -0.01339,-0.0014 0.06376094,0.06376094 0 0 1 -0.046541,-0.04049 C 6.6128905,13.226419 6.552955,13.000068 6.5282476,12.796033 a 0.06376094,0.06376094 0 0 1 0.076196,-0.07014 c 0.2277855,0.04687 0.4863367,0.04989 0.7534949,0.04894 a 0.06376094,0.06376094 0 0 1 0.055636,0.09564 c -0.079701,0.138361 -0.2754474,0.3679 -0.5837312,0.68256 a 0.06376094,0.06376094 0 0 1 -0.045435,0.01817 z M 6.6672448,12.866129 c 0.025182,0.150317 0.070774,0.31769 0.1434625,0.523478 0.195905,-0.203397 0.3412803,-0.369336 0.4286329,-0.487931 -0.1989346,-7.92e-4 -0.3921298,-0.0072 -0.5720954,-0.03555 z"
     id="path40"
     style="stroke-width:0.0159402" />
  <path
     d="m 4.3563886,11.407598 c 0.099308,0.18937 0.2521748,0.365191 0.4034476,0.515348 a 2.853302,2.853302 0 0 0 0.5142325,0.398506 c 0.3985052,0.246117 0.8580627,0.447601 1.3171413,0.545953 1.0520557,0.225554 2.0456107,-0.284215 2.9503784,-0.757003 0.2591881,-0.135491 0.5220426,-0.292821 0.8104016,-0.355944 0.316254,-0.06918 0.622944,0.03188 0.92804,0.105045 0.09293,0.02216 0.127522,-0.110465 0.03906,-0.141867 -0.244524,-0.08656 -0.506422,-0.156374 -0.768001,-0.151911 -0.257754,0.0045 -0.49606,0.09883 -0.7243244,0.211367 -0.464976,0.229062 -0.9136938,0.492075 -1.3938141,0.689735 C 7.9584056,12.662254 7.4459268,12.79663 6.9289855,12.765228 6.4487062,12.736057 5.9704987,12.5486 5.5469672,12.329422 A 3.5035042,3.5035042 0 0 1 4.9294427,11.928365 2.3545321,2.3545321 0 0 1 4.6600527,11.673321 C 4.57493,11.577681 4.509417,11.466099 4.4408743,11.358023 c -0.033634,-0.05339 -0.1138137,-0.0065 -0.084481,0.04942 z"
     id="path42"
     style="stroke-width:0.0159402" />
  <path
     d="m 4.6458634,11.17774 c -0.1170014,-0.03332 -0.259826,-0.05069 -0.3666246,0.01817 -0.095642,0.06122 -0.1632284,0.171517 -0.15749,0.286924 0.00353,0.06902 0.1152476,0.09341 0.1275223,0.01721 0.031877,-0.191283 0.1842691,-0.272896 0.3699722,-0.224278 0.063763,0.01594 0.089902,-0.0797 0.026939,-0.09803 z"
     id="path44"
     style="stroke-width:0.0159402" />
  <path
     class="cls-6"
     d="m 8.8885166,10.096195 c 0.077944,-0.1877765 1.3530074,-0.2508997 1.3549204,-0.03188 7.91e-4,0.09293 -0.239103,0.765131 -0.557909,0.749191 -0.3188038,-0.01594 -0.819168,-0.66423 -0.7970114,-0.71731 z"
     id="path46"
     style="stroke-width:0.0159402" />
  <ellipse
     class="cls-7"
     cx="9.2870235"
     cy="10.191837"
     rx="0.11158165"
     ry="0.079701178"
     id="ellipse48"
     style="stroke-width:0.0159402" />
  <path
     d="m 9.6968457,10.877426 c -0.00493,0 -0.00973,0 -0.014506,0 -0.3046181,-0.01515 -0.7077468,-0.500683 -0.8129525,-0.666302 -0.043677,-0.06934 -0.054352,-0.105684 -0.040488,-0.139158 0.038256,-0.09166 0.214077,-0.1557364 0.5228398,-0.1901676 0.2585502,-0.028855 0.539098,-0.025349 0.7146,0.00874 0.05914,0.011633 0.239103,0.046709 0.240219,0.1734296 0,0.08847 -0.138679,0.490481 -0.3479743,0.691168 -0.084323,0.08113 -0.1724734,0.122262 -0.2617388,0.122262 z M 8.9576972,10.109744 c 0.063763,0.127522 0.4794825,0.627567 0.7310194,0.64016 0.055952,0.0027 0.1158855,-0.02487 0.1774149,-0.08241 0.1829945,-0.171197 0.3095595,-0.53336 0.3133855,-0.600468 C 10.165652,10.0471 10.062036,9.9946543 9.7491301,9.9898746 9.359551,9.9841093 9.0270368,10.053638 8.9576972,10.109744 Z m -0.010675,0.01163 z m -0.0585,-0.02502 z"
     id="path50"
     style="stroke-width:0.0159402" />
  <path
     class="cls-8"
     d="M 7.5804605,9.4351534 Q 7.0201618,8.9539176 6.5644299,8.7441442 A 1.0474328,1.0474328 0 0 1 6.395783,9.8690467 4.415445,4.415445 0 0 0 6.9747317,9.7198458 c 0.1082343,-0.035708 0.2151938,-0.075712 0.3197615,-0.121146 0.095642,-0.041445 0.2145559,-0.072532 0.287881,-0.1498379 a 0.02917063,0.02917063 0 0 1 0.00716,-0.00558 0.06694898,0.06694898 0 0 1 -0.00697,-0.00651 z"
     id="path52"
     style="stroke-width:0.0159402" />
  <path
     class="cls-9"
     d="M 6.563633,8.7441442 C 6.2129487,8.5826696 5.9100833,8.5428189 5.6591843,8.6258679 5.2872984,8.7489267 5.0185463,9.1455199 4.8596224,9.8054446 a 0.07539731,0.07539731 0 0 0 -0.00242,0.041129 c 0,0.0027 0.014348,0.014348 0.014664,0.016896 A 0.08065759,0.08065759 0 0 1 4.8839857,9.8644 C 5.3510353,9.946649 5.8222286,9.961636 6.2918271,9.887359 6.3262611,9.881779 6.3606861,9.875726 6.394961,9.869505 A 1.0474328,1.0474328 0 0 0 6.5636088,8.7446026 Z M 5.2382026,9.1955716 A 0.1833127,0.1833127 0 1 1 5.4215159,9.3788848 0.1833127,0.1833127 0 0 1 5.2382026,9.1955716 Z M 5.6446789,9.5861072 A 0.10361153,0.10361153 0 1 1 5.7482907,9.4824954 0.10361153,0.10361153 0 0 1 5.6446789,9.5861072 Z"
     id="path54"
     style="stroke-width:0.0159402" />
  <circle
     class="cls-7"
     cx="5.421515"
     cy="9.1955719"
     id="circle56"
     r="0.1833127"
     style="stroke-width:0.0159402" />
  <circle
     class="cls-7"
     cx="5.6446786"
     cy="9.4824963"
     id="circle58"
     r="0.10361153"
     style="stroke-width:0.0159402" />
  <path
     class="cls-10"
     d="M 7.4768496,9.1839358 C 7.1537404,8.3638102 6.655927,7.5658421 5.5833094,7.4065992 5.0690768,8.0348036 4.8189748,8.7117857 4.8242352,9.4660771 5.0010122,8.9438757 5.2675325,8.6212454 5.6191746,8.5048819 c 0.4758158,-0.15733 1.1005135,0.070932 1.857675,0.6790539 z"
     id="path60"
     style="stroke-width:0.0159402" />
  <path
     d="M 7.6933173,9.3948247 C 7.696665,9.1746899 7.6091524,8.950411 7.5179752,8.7532302 A 2.8888487,2.8888487 0 0 0 7.1542193,8.1712528 C 6.8631507,7.8014387 6.4965251,7.4741859 6.0355338,7.3404473 A 1.930203,1.930203 0 0 0 5.2426661,7.2852952 c -0.046541,0.00586 -0.049731,0.077944 0,0.075396 a 1.9950798,1.9950798 0 0 1 0.213918,0 Q 5.3743348,7.4631871 5.3011668,7.5679148 C 5.2391614,7.6523959 5.1841654,7.7419821 5.1341129,7.8248712 A 3.1402262,3.1402262 0 0 0 4.8471887,8.4439895 3.6141294,3.6141294 0 0 0 4.6967129,9.0953074 0.75253848,0.75253848 0 0 1 4.4309895,9.1180992 C 4.3182917,9.1082144 4.2275915,9.065653 4.1231837,9.0277226 a 0.0478207,0.0478207 0 0 0 -0.030928,-0.0013 c -0.033476,0.00242 -0.058658,0.047825 -0.039372,0.07747 0.035224,0.05372 0.090386,0.084323 0.1434616,0.1176393 0.053078,0.033318 0.1037708,0.067427 0.1594028,0.095642 0.088312,0.043519 0.2022812,0.091176 0.3073279,0.09851 -0.00139,0.028697 -0.00223,0.057542 -0.00223,0.086239 A 0.83829695,0.83829695 0 0 1 4.474983,9.5253559 C 4.3933641,9.5235865 4.3128685,9.5031939 4.233805,9.484224 A 0.78410014,0.78410014 0 0 1 4.0157425,9.4013331 C 3.9757291,9.3775835 3.880729,9.2927811 3.8711651,9.2852889 c -0.018812,-0.014822 -0.053237,-0.013074 -0.058816,0.015938 -0.00781,0.041287 0.084965,0.1694444 0.139636,0.2188591 A 2.1291372,2.1291372 0 0 0 4.1506007,9.6710402 1.0874428,1.0874428 0 0 0 4.417918,9.8068506 c 0.098192,0.031877 0.1912833,0.015938 0.2897937,0.023117 a 0.68287966,0.68287966 0 0 0 0.031877,0.079701 c 0.014822,0.031877 0.086713,0.068226 0.111582,0.073648 0.4951037,0.1096694 1.0184213,0.1093504 1.5168726,0.023117 A 3.8336264,3.8336264 0 0 0 7.1108583,9.8008053 2.8043654,2.8043654 0 0 0 7.4499068,9.6474599 C 7.5804577,9.5809909 7.6899669,9.4850284 7.6933146,9.3948071 Z M 7.5817363,9.448861 C 7.508414,9.5261726 7.389338,9.5572544 7.2938553,9.5986989 7.1892876,9.6441243 7.0823291,9.6841378 6.9740947,9.7198448 a 4.415445,4.415445 0 0 1 -0.5791086,0.149201 c -0.034276,0.00623 -0.068701,0.012275 -0.1031339,0.017854 -0.4695994,0.07428 -0.9404737,0.059299 -1.4078414,-0.022959 -0.00418,0 -0.012591,-0.00623 -0.013065,-0.00893 A 0.06551437,0.06551437 0 0 1 4.8596289,9.8049573 C 5.0190317,9.1455097 5.2873058,8.7489174 5.6591908,8.6253807 5.9105687,8.5423316 6.2129552,8.5821777 6.5636404,8.7436569 Q 7.0184145,8.9531114 7.579671,9.4346652 a 0.01036115,0.01036115 0 0 1 0.00205,0.01419 z M 5.6198125,8.504881 C 5.2681704,8.6210845 5.0016501,8.9438747 4.8248722,9.4660762 4.8195718,8.7117847 5.0697148,8.0348027 5.5839464,7.4065983 6.656246,7.5660011 7.1543783,8.3638092 7.4774866,9.1839349 6.7196881,8.5758144 6.0949904,8.3475509 5.6198125,8.504881 Z"
     id="path62"
     style="stroke-width:0.0159402" />
  <path
     class="cls-8"
     d="m 10.728498,8.8879257 a 0.88818988,0.88818988 0 0 1 0.0091,0.1243336 c 0,0.2124832 -0.06615,0.4190685 -0.20005,0.5685875 q 0.06073,-0.00558 0.120986,-0.012916 c 0.152229,-0.019286 0.308444,-0.051963 0.455891,-0.081617 0,-0.004 0,-0.008 0,-0.011959 -0.105034,-0.273215 -0.234309,-0.4697588 -0.3859,-0.5864412 z"
     id="path64"
     style="stroke-width:0.0159402" />
  <path
     class="cls-9"
     d="M 10.728498,8.8879257 A 0.60684474,0.60684474 0 0 0 10.508044,8.7780975 C 10.091845,8.6708191 9.5847858,9.0313873 9.1690645,9.3916361 a 0.03682195,0.03682195 0 0 0 -0.008,0.011001 0.00637609,0.00637609 0 0 0 0.00335,0.00716 C 9.4931022,9.5054391 9.81095,9.5843423 10.155896,9.5929504 a 3.3633895,3.3633895 0 0 0 0.382567,-0.012117 C 10.672361,9.4313145 10.738512,9.2247291 10.738512,9.012246 A 0.88818988,0.88818988 0 0 0 10.72847,8.8879127 Z M 9.7492891,9.3788848 A 0.17534258,0.17534258 0 1 1 9.9246322,9.2035417 0.17534258,0.17534258 0 0 1 9.7492891,9.3788848 Z M 9.9565127,9.531592 a 0.07970118,0.07970118 0 1 1 0.079701,-0.079701 0.07970118,0.07970118 0 0 1 -0.080659,0.079701 z"
     id="path66"
     style="stroke-width:0.0159402" />
  <circle
     class="cls-7"
     cx="9.7492905"
     cy="9.2035427"
     id="circle68"
     r="0.17534259"
     style="stroke-width:0.0159402" />
  <circle
     class="cls-7"
     cx="9.9560356"
     cy="9.4514132"
     id="circle70"
     r="0.080179386"
     style="stroke-width:0.0159402" />
  <path
     class="cls-10"
     d="m 10.693748,7.5234416 c -0.190485,0.055152 -0.364712,0.1463312 -0.533679,0.2585502 A 2.8415062,2.8415062 0 0 0 9.7802137,8.1411251 2.5848684,2.5848684 0 0 0 9.3829825,8.7326674 2.4842855,2.4842855 0 0 0 9.2431865,9.0833527 c -0.010517,0.033634 -0.019444,0.067585 -0.027581,0.1015391 0.4144464,-0.3398455 0.8983915,-0.6404781 1.3244745,-0.53065 0.232408,0.059932 0.427198,0.2371905 0.581978,0.5276213 q 0,-0.053078 -0.0014,-0.1061616 c -0.04384,-0.6396821 -0.19463,-1.170173 -0.42688,-1.5522599 z"
     id="path72"
     style="stroke-width:0.0159402" />
  <path
     d="m 11.606645,9.1852107 a 0.06280453,0.06280453 0 0 0 -0.01594,-0.031877 0.06487676,0.06487676 0 0 0 -0.05435,-0.00956 c -0.04033,0.014823 -0.0797,0.029487 -0.120189,0.045426 -0.03188,0.012591 -0.08368,0.01817 -0.162271,-0.00604 -0.0011,-0.020876 -0.0022,-0.041762 -0.0033,-0.062322 a 0.38400025,0.38400025 0 0 0 0.07524,-0.025981 0.40504137,0.40504137 0 0 0 0.100104,-0.061215 c 0.0534,-0.04431 0.133899,-0.1233767 0.121784,-0.1981367 a 0.04240103,0.04240103 0 0 0 -0.04033,-0.030603 0.09898885,0.09898885 0 0 0 -0.0797,0.029329 0.2438856,0.2438856 0 0 1 -0.195906,0.050847 C 11.174509,8.3121823 11.03838,7.8521469 10.819999,7.4906218 l -0.002,-0.004 a 0.63760939,0.63760939 0 0 0 0.08098,-0.027571 c 0.04687,-0.020244 0.01817,-0.086713 -0.02423,-0.088945 -0.113335,-0.00604 -0.23735,0.047824 -0.342077,0.087829 -0.03921,0.014823 -0.07827,0.030919 -0.117002,0.047824 A 1.7524694,1.7524694 0 0 0 9.8599411,7.8553299 2.4742432,2.4742432 0 0 0 9.6653111,8.0442216 2.5604798,2.5604798 0 0 0 9.2338085,8.6759326 3.6126948,3.6126948 0 0 0 9.0237161,9.2400578 c -0.015938,0.050531 -0.033476,0.1101472 -0.051963,0.1667347 a 0.06376094,0.06376094 0 0 0 0.025823,0.073164 c 0.011959,0.008 0.1050467,0.049257 0.1233777,0.05691 0.3197607,0.1308699 0.6916467,0.1774149 1.0348392,0.1833132 a 3.2628067,3.2628067 0 0 0 0.504987,-0.031086 c 0.156214,-0.021843 0.54675,-0.1032929 0.550416,-0.1039308 a 0.06376094,0.06376094 0 0 0 0.05292,-0.063763 c 0,-0.020244 0,-0.040171 0,-0.06009 v 0 l 0.0018,-0.0013 c 0.01116,-0.00288 0.02279,-0.00651 0.03555,-0.010675 a 0.48729297,0.48729297 0 0 0 0.120668,-0.05691 c 0.04781,-0.033476 0.07588,-0.056268 0.121464,-0.092776 0.0416,-0.03395 0.07205,-0.0585 0.06312,-0.1144507 z M 10.65852,9.5677761 q -0.06026,0.00753 -0.120986,0.012907 a 3.3633895,3.3633895 0 0 1 -0.382566,0.012116 C 9.8100215,9.5841516 9.4921737,9.5046455 9.163486,9.4096464 a 0.00637609,0.00637609 0 0 1 -0.00335,-0.00716 0.03682195,0.03682195 0 0 1 0.008,-0.011001 C 9.5844938,9.0312357 10.091553,8.6706685 10.507115,8.7779459 a 0.60684474,0.60684474 0 0 1 0.220454,0.1098282 c 0.15175,0.1166825 0.280866,0.3129064 0.385753,0.5864405 0,0.004 0,0.008 0,0.011959 -0.146331,0.029813 -0.302545,0.062489 -0.454775,0.081617 z M 10.539925,8.6544009 C 10.113843,8.5445727 9.6297379,8.8456842 9.2154505,9.1850517 c 0.00809,-0.033951 0.017054,-0.067901 0.027581,-0.10154 A 2.4842855,2.4842855 0 0 1 9.3828272,8.7328274 2.5848684,2.5848684 0 0 1 9.7802174,8.1411251 2.8415062,2.8415062 0 0 1 10.160073,7.7824697 c 0.168966,-0.111581 0.343194,-0.2033971 0.533679,-0.2585501 0.232249,0.3825658 0.382566,0.9124187 0.42672,1.5525788 q 0.0014,0.053078 0.0014,0.1061616 C 10.967088,8.8917513 10.772298,8.7144954 10.539889,8.6545599 Z"
     id="path74"
     style="stroke-width:0.0159402" />
  <path
     class="cls-11"
     d="m 10.838008,5.2975472 a 3.5806548,3.5806548 0 0 0 -0.541969,0.1979777 q 0.251697,0.016738 0.496061,0.044793 0.02024,-0.1221028 0.04591,-0.2427698 z"
     id="path76"
     style="stroke-width:0.0159402" />
  <path
     class="cls-11"
     d="m 12.438248,2.3983374 c 0,-0.00688 -0.0011,-0.013549 -0.0019,-0.020402 -0.775174,0.3683793 -1.556245,1.2084299 -2.245501,2.1497006 a 7.3870235,7.3870235 0 0 1 0.784897,0.2485082 c 0.283258,-0.8923349 0.789201,-1.708793 1.462517,-2.377805 z"
     id="path78"
     style="stroke-width:0.0159402" />
  <path
     class="cls-12"
     d="m 6.7161815,4.0671197 c -0.061048,0.2263517 -0.0695,0.4702374 -0.041604,0.7013705 A 5.3777569,5.3777569 0 0 1 7.1677688,3.8468264 c -0.1321447,0.0593 -0.2851712,0.1324628 -0.4515873,0.2202933 z"
     id="path80"
     style="stroke-width:0.0159402" />
  <path
     class="cls-12"
     d="M 10.210599,4.863016 C 10.029519,4.9771478 9.9461509,5.1752854 9.8552917,5.3731041 10.084672,5.2272508 10.359322,5.1065828 10.684184,5.0093473 Q 10.445877,4.9262983 10.210599,4.863016 Z"
     id="path82"
     style="stroke-width:0.0159402" />
  <path
     class="cls-12"
     d="m 11.56552,7.1517147 c 0.991164,-0.1061616 2.108892,0.05372 3.334379,0.4769325 A 6.6349632,6.6349632 0 0 0 14.001506,6.9487955 C 13.754114,6.9033701 13.516923,6.8579353 13.255663,6.8125071 12.793396,6.7168654 12.315189,6.6849849 11.884803,6.9081479 11.76541,6.9639416 11.665784,7.055914 11.56552,7.1517147 Z"
     id="path84"
     style="stroke-width:0.0159402" />
  <path
     class="cls-12"
     d="M 12.123428,10.213197 A 2.3207387,2.3207387 0 0 0 11.824868,9.8625114 0.15940235,0.15940235 0 0 1 11.774495,9.7616093 7.6412704,7.6412704 0 0 0 11.462864,8.3448412 c -0.08098,-0.2457976 -0.151751,-0.4415445 -0.207223,-0.5886726 0.05212,0.2470743 0.109031,0.4893653 0.151911,0.7460036 0.01833,0.1071175 0.03188,0.2132801 0.03905,0.3188037 a 0.0883089,0.0883089 0 0 1 0.06185,-0.015938 0.04240103,0.04240103 0 0 1 0.04033,0.030603 c 0.0102,0.062805 -0.04495,0.1284782 -0.09469,0.1742263 -0.0094,0.00874 -0.01865,0.016896 -0.0271,0.023908 -0.002,0.00177 -0.004,0.00307 -0.006,0.00465 a 1.4003496,1.4003496 0 0 1 0.0043,0.147926 l 0.02455,-0.0094 c 0.02901,-0.011317 0.05818,-0.022159 0.08767,-0.032993 a 0.06487676,0.06487676 0 0 1 0.05435,0.00956 0.06280453,0.06280453 0 0 1 0.01594,0.031877 c 0.0089,0.05531 -0.02152,0.079701 -0.06376,0.1134948 -0.04225,0.033792 -0.07125,0.057542 -0.115885,0.088945 a 2.4229157,2.4229157 0 0 1 -0.116205,0.4688015 c -0.08241,0.2231645 -0.216469,0.4378795 -0.268593,0.6694915 0,0 0,0.0011 0,0.0018 0.373161,0.01658 0.745366,-0.14155 1.080111,-0.314661 z"
     id="path86"
     style="stroke-width:0.0159402" />
  <path
     class="cls-11"
     d="m 12.652643,11.452709 c 0,-0.0022 0,-0.0043 0,-0.0064 q 0,-0.01594 -0.0019,-0.03188 c 0,-0.0024 0,-0.0049 0,-0.0075 0,-0.0083 -0.0014,-0.01594 -0.0024,-0.02502 0,-0.0032 0,-0.0064 -0.0011,-0.0096 -0.0013,-0.0097 -0.0025,-0.0196 -0.004,-0.02949 v -0.0035 c -0.0018,-0.011 -0.0036,-0.02232 -0.0058,-0.03363 0,-0.0031 -0.0011,-0.0062 -0.0018,-0.0094 -0.0016,-0.0087 -0.0033,-0.01738 -0.0053,-0.0263 0,-0.0032 -0.0013,-0.0064 -0.002,-0.0096 -0.0024,-0.01148 -0.0051,-0.02312 -0.008,-0.03491 a 0.02550437,0.02550437 0 0 1 -7.91e-4,-0.0033 c -0.0027,-0.01084 -0.0054,-0.02168 -0.0085,-0.03188 0,-0.0035 -0.0018,-0.007 -0.0027,-0.01052 -0.0027,-0.0094 -0.0053,-0.01881 -0.0081,-0.02821 l -0.0024,-0.0087 c -0.0036,-0.01212 -0.0073,-0.02439 -0.01132,-0.03667 l -0.0024,-0.0075 c -0.0033,-0.01004 -0.0065,-0.02009 -0.01004,-0.03013 -0.0011,-0.0036 -0.0024,-0.0073 -0.0036,-0.011 -0.0036,-0.01052 -0.0073,-0.02089 -0.01116,-0.03188 l -0.0022,-0.0065 c -0.0046,-0.01243 -0.0092,-0.02502 -0.01402,-0.03762 l -0.0038,-0.0099 c -0.0038,-0.0099 -0.0076,-0.0196 -0.01163,-0.02949 -0.0014,-0.0036 -0.0029,-0.0073 -0.0045,-0.01084 -0.0049,-0.01259 -0.0102,-0.02518 -0.01594,-0.03778 v 0 c -0.0054,-0.01292 -0.011,-0.02567 -0.01594,-0.03857 -0.0018,-0.0036 -0.0033,-0.0073 -0.0049,-0.011 l -0.01339,-0.02965 c -0.0016,-0.0033 -0.0031,-0.0069 -0.0046,-0.0102 l -0.01801,-0.03857 -0.0029,-0.0059 c -0.0053,-0.011 -0.01052,-0.022 -0.01594,-0.03284 l -0.0058,-0.01163 -0.01594,-0.03076 -0.0043,-0.0083 c -0.0065,-0.01276 -0.01307,-0.02551 -0.01977,-0.03826 l -0.0047,-0.0089 -0.01594,-0.03013 -0.0062,-0.01116 c -0.006,-0.01116 -0.01227,-0.02232 -0.01849,-0.03348 -9.3e-4,-0.0016 -0.0018,-0.0032 -0.0025,-0.0047 l -0.02312,-0.03746 -0.0062,-0.01052 c -0.0054,-0.0094 -0.011,-0.01881 -0.01594,-0.02821 l -0.0062,-0.01068 c -0.0073,-0.01227 -0.01482,-0.02455 -0.02232,-0.03667 l -0.0018,-0.0031 -0.02089,-0.03363 -0.0067,-0.01052 -0.0177,-0.02774 -0.0042,-0.0064 c -0.02917,-0.04527 -0.05914,-0.0891 -0.0891,-0.131347 -0.334745,0.17311 -0.706949,0.331238 -1.080906,0.315138 a 0.79828697,0.79828697 0 0 0 -0.01801,0.253291 c 0.01594,0.239103 0.143462,0.462266 0.191283,0.70137 a 0.42401025,0.42401025 0 0 1 -0.02455,0.191283 c 0.04303,0.01355 0.08575,0.02805 0.127522,0.04288 0.08863,0.03188 0.05388,0.164025 -0.03906,0.141868 -0.05595,-0.01339 -0.111582,-0.02774 -0.16801,-0.04176 -0.249784,-0.06265 -0.501799,-0.11987 -0.76003,-0.06376 -0.04001,0.0087 -0.0797,0.01944 -0.118755,0.03188 -0.408548,0.661202 -0.8963194,1.242063 -1.5997618,1.594024 A 4.5620952,4.5620952 0 0 1 7.9078053,13.664383 4.0685855,4.0685855 0 0 1 7.1222709,13.88101 c 0.1034519,0.0062 0.2072227,0.0092 0.3116314,0.0092 h 0.065837 c 1.1999808,-0.01435 2.4318423,-0.298402 3.4689147,-0.799722 0.913693,-0.441863 1.553694,-1.011248 1.670217,-1.485949 0.002,-0.0083 0.0038,-0.01705 0.0054,-0.02582 0,-0.0024 9.3e-4,-0.0049 0.0013,-0.0075 0.0011,-0.0069 0.0022,-0.01371 0.0031,-0.02072 l 9.3e-4,-0.0072 c 9.3e-4,-0.0092 0.0018,-0.01849 0.0024,-0.0279 0,-0.0016 0,-0.0033 0,-0.0049 0,-0.008 0,-0.01594 7.93e-4,-0.02455 v -0.0087 c 1.59e-4,-0.0083 0,-0.01642 -1.6e-4,-0.02455 z"
     id="path88"
     style="stroke-width:0.0159402" />
  <path
     class="cls-12"
     d="M 5.3040356,4.7358127 A 5.2940707,5.2940707 0 0 0 4.7368826,3.9502783 c -0.063763,-0.018812 -0.1264064,0.013391 -0.1841102,0.054994 0.2980829,0.556952 0.474222,1.0935002 0.5469101,1.4695298 A 1.3281403,1.3281403 0 0 1 5.2382026,5.1706629 C 5.3228418,5.0375613 5.4258194,5.0788449 5.5332568,5.1135952 5.4444704,4.9726833 5.355842,4.8245983 5.3040356,4.7358109 Z"
     id="path90"
     style="stroke-width:0.0159402" />
  <path
     class="cls-13"
     d="M 4.7368826,3.9502783 Q 4.6742373,3.8775911 4.6082445,3.8055409 l -0.035708,-0.038898 -0.00446,-0.00474 Q 4.4883716,3.6767782 4.4042076,3.5924561 a 0.00956414,0.00956414 0 0 1 -0.0013,-0.0013 Q 4.2753835,3.4636329 4.1354285,3.3369076 c 0.043361,0.059616 0.084007,0.1181173 0.1219429,0.1753431 0.068385,0.1024959 0.1324628,0.2057879 0.1923983,0.3087618 q 0.053878,0.092618 0.1029739,0.1847471 c 0.0577,-0.042078 0.1206671,-0.07428 0.1841092,-0.055468 z"
     id="path92"
     style="stroke-width:0.0159402" />
  <path
     class="cls-11"
     d="m 4.2092604,7.018295 c 0.004,-0.063763 0.00956,-0.1460123 0.015938,-0.2360746 C 4.0324816,6.6084721 3.870529,6.3811645 3.67558,6.2067774 3.4683563,6.0314352 3.4045961,5.7763917 3.2451933,5.5532287 A 5.7335429,5.7335429 0 0 1 2.1697061,2.9976899 c 0.011317,1.2793632 0.4225755,2.6723802 2.0395525,4.0206051 z"
     id="path94"
     style="stroke-width:0.0159402" />
  <path
     class="cls-11"
     d="m 4.9767828,6.0290445 c 0.00809,-0.00623 0.019286,-0.025981 0.027255,-0.065353 -0.1624314,-0.043519 -0.3302814,-0.069975 -0.4831489,-0.058974 -0.03794,0.00539 -0.055636,0.032835 -0.061215,0.071091 a 1.4059287,1.4059287 0 0 1 0.186023,0.028055 c 0.1015391,0.018654 0.2907497,0.054678 0.3310784,0.025182 z"
     id="path96"
     style="stroke-width:0.0159402" />
  <path
     class="cls-14"
     d="m 9.8661315,10.667653 c 0.1829945,-0.171199 0.3095595,-0.533361 0.3133855,-0.60047 -0.01068,-0.01594 -0.07492,-0.05005 -0.2475526,-0.067268 -0.13055,0.231452 -0.1753422,0.526028 -0.3849566,0.704718 a 0.35307621,0.35307621 0 0 0 0.1417088,0.04542 c 0.055952,0.0024 0.1158855,-0.02518 0.1774149,-0.08241 z"
     id="path98"
     style="stroke-width:0.0159402" />
  <path
     class="cls-15"
     d="M 7.4768496,9.1839358 C 7.3515591,8.8659281 7.1999674,8.5512679 6.9986421,8.2753417 c 0.111582,0.2126431 0.186182,0.4388347 0.1753431,0.6804887 q 0.148085,0.1039308 0.3028644,0.2281054 z"
     id="path100"
     style="stroke-width:0.0159402" />
  <path
     class="cls-15"
     d="m 11.121903,9.182182 q 0,-0.053078 -0.0014,-0.1061616 c -0.04368,-0.64016 -0.194471,-1.1704919 -0.42672,-1.5525788 -0.02423,0.00697 -0.04782,0.014664 -0.07205,0.02295 0.193355,0.3541919 0.139955,0.7651316 0.01036,1.1395673 0.19208,0.079227 0.356106,0.2450016 0.489844,0.4962196 z"
     id="path102"
     style="stroke-width:0.0159402" />
</svg>
