<?xml version="1.0" encoding="UTF-8"?>
<svg width="1200pt" height="1200pt" version="1.1" viewBox="0 0 1200 1200" xmlns="http://www.w3.org/2000/svg">
 <g fill="#007335">
  <path d="m300 930c15.051-151.6 142.96-270 298.52-270 155.56 0 283.46 118.4 298.52 270h-60.379c-14.762-118.39-115.75-210-238.14-210-122.39 0-223.38 91.609-238.14 210zm298.52-330c-99.41 0-180-80.59-180-180s80.59-180 180-180c99.41 0 180 80.59 180 180s-80.59 180-180 180zm0-60c66.273 0 120-53.727 120-120s-53.727-120-120-120c-66.273 0-120 53.727-120 120s53.727 120 120 120z"/>
  <path d="m1170 810h-60c0-82.844-67.156-150-150-150-41.648 0-79.328 16.973-106.51 44.379-14.242-14.121-29.652-27.062-46.078-38.66 38.277-40.469 92.484-65.719 152.59-65.719 115.98 0 210 94.02 210 210z"/>
  <path d="m960 480c16.57 0 30-13.43 30-30s-13.43-30-30-30-30 13.43-30 30 13.43 30 30 30zm0 60c-49.707 0-90-40.293-90-90s40.293-90 90-90 90 40.293 90 90-40.293 90-90 90z"/>
  <path d="m30 810h60c0-82.844 67.156-150 150-150 41.648 0 79.328 16.973 106.51 44.379 14.242-14.121 29.652-27.062 46.078-38.66-38.277-40.469-92.484-65.719-152.59-65.719-115.98 0-210 94.02-210 210z"/>
  <path d="m240 480c-16.57 0-30-13.43-30-30s13.43-30 30-30 30 13.43 30 30-13.43 30-30 30zm0 60c49.707 0 90-40.293 90-90s-40.293-90-90-90-90 40.293-90 90 40.293 90 90 90z"/>
 </g>
</svg>
