<?xml version="1.0" encoding="UTF-8" standalone="no"?>
<svg
   width="1200pt"
   height="1200pt"
   version="1.1"
   viewBox="0 0 1200 1200"
   id="svg4"
   sodipodi:docname="reports.svg"
   inkscape:version="1.1.1 (3bf5ae0d25, 2021-09-20)"
   xmlns:inkscape="http://www.inkscape.org/namespaces/inkscape"
   xmlns:sodipodi="http://sodipodi.sourceforge.net/DTD/sodipodi-0.dtd"
   xmlns="http://www.w3.org/2000/svg"
   xmlns:svg="http://www.w3.org/2000/svg">
  <defs
     id="defs8" />
  <sodipodi:namedview
     id="namedview6"
     pagecolor="#ffffff"
     bordercolor="#666666"
     borderopacity="1.0"
     inkscape:pageshadow="2"
     inkscape:pageopacity="0.0"
     inkscape:pagecheckerboard="0"
     inkscape:document-units="pt"
     showgrid="false"
     inkscape:zoom="0.545625"
     inkscape:cx="800"
     inkscape:cy="800"
     inkscape:window-width="2560"
     inkscape:window-height="1351"
     inkscape:window-x="2551"
     inkscape:window-y="-9"
     inkscape:window-maximized="1"
     inkscape:current-layer="svg4" />
  <path
     d="m 1071.3244,356.79139 v 684.08511 l -16.695,16.6951 H 900.264 l -16.69508,-16.6951 V 859.42682 l -63.44827,-63.45175 v 244.89883 l -16.69508,16.6951 H 646.99019 l -16.69508,-16.6951 V 724.43715 c -20.83341,4.9332 -42.14606,7.35558 -63.44827,7.27069 v 309.16556 l -16.69508,16.6951 H 395.78641 l -16.69508,-16.6951 V 654.386 c -0.48924,-0.48245 -0.97848,-0.96491 -1.46433,-1.45415 -37.82769,-37.82769 -62.03142,-84.15295 -72.61468,-132.85614 h -64.36239 v 132.82135 c 18.75381,6.82563 32.16728,24.82561 32.16728,45.93126 0,26.96957 -21.89365,48.86322 -48.86323,48.86322 -26.96958,0 -48.86323,-21.89365 -48.86323,-48.86322 0,-21.10565 13.41347,-39.10537 32.16728,-45.93126 V 486.67685 h 92.66444 c -6.83581,-76.68517 19.06344,-155.74827 77.70801,-214.39632 105.04115,-105.04115 275.60147,-105.04115 380.64262,0 5.14386,5.14725 10.03966,10.44758 14.67723,15.89316 l 23.11654,-37.82421 8.38163,-6.92748 128.04635,-48.01347 c -0.017,-0.49943 -0.0238,-1.00222 -0.0238,-1.50512 0,-26.96958 21.89365,-48.86323 48.86323,-48.86323 26.96962,0 48.86322,21.89365 48.86322,48.86323 0,21.10912 -13.4135,39.10537 -32.16727,45.93387 v 100.24876 h 56.59887 z M 964.63943,340.0963 V 239.84754 c -7.66139,-2.79272 -14.43283,-7.44733 -19.7636,-13.41695 l -123.31485,46.24351 -27.1357,44.40569 c 46.32874,71.99629 54.89328,161.31475 25.69885,239.7151 v 76.78345 L 883.5724,697.0266 V 356.78443 l 16.69508,-16.69508 h 64.37282 z m -47.67687,390.33177 47.67687,47.67687 V 453.13579 l -12.36715,8.24577 -18.51984,-27.78106 38.32345,-25.54926 h 18.51985 l 38.32346,25.54926 -18.5198,27.78106 -12.3672,-8.24577 V 811.4951 l 39.9038,39.90381 V 373.49081 H 964.64117 916.9643 v 356.94161 z m 120.97524,168.19457 -216.60557,-216.60552 -33.97464,33.97812 32.71436,32.71436 h 0.0544 v 0.0544 l 96.25655,96.25655 h 0.58098 v 0.58098 l 80.85394,80.85394 h 0.21404 v 0.21404 l 7.57304,7.57302 32.3308,-32.3308 v -3.28874 z M 734.66915,629.32694 c 92.01212,-92.01211 92.01212,-241.41112 0,-333.42324 -92.01211,-92.01212 -241.41112,-92.01212 -333.42324,0 -92.01212,92.01212 -92.01212,241.41113 0,333.42324 92.01212,92.01212 241.41113,92.01212 333.42324,0 z M 420.56332,315.22111 c 81.34623,-81.34622 213.43958,-81.34622 294.78842,0 81.34883,81.34623 81.34622,213.43959 0,294.78842 -81.34623,81.34971 -213.43958,81.34971 -294.78842,0 -81.3497,-81.34623 -81.3497,-213.43958 0,-294.78842 z m 23.60969,23.60969 c -68.31719,68.31719 -68.31719,179.24924 0,247.56034 68.31371,68.3172 179.24924,68.3172 247.56034,0 68.31719,-68.31371 68.31719,-179.24924 0,-247.56034 -68.31719,-68.3111 -179.24924,-68.31719 -247.56034,0 z m 124.97609,38.5722 -16.69508,-0.22763 0.45187,-33.38755 33.38755,0.45527 -0.45186,33.38755 z m 62.1645,27.23747 -11.48347,-12.11926 24.23418,-22.96694 22.96693,24.23766 -24.23417,22.96693 z m 23.78973,63.55698 0.6795,-16.67855 33.35972,1.35561 -0.6795,16.68551 -0.6761,16.67856 -33.3632,-1.359 0.6795,-16.67856 z m -28.93002,61.39998 12.42107,-11.15383 22.30504,24.8491 -12.42803,11.14687 -12.42107,11.15383 -22.30504,-24.84562 12.42803,-11.15383 z m -64.18583,22.03977 16.65768,1.13478 -2.26277,33.31275 -33.31971,-2.26956 2.26617,-33.31275 z m -60.58761,-30.60171 10.81114,12.72027 -25.44402,21.62141 -10.81114,-12.72027 -10.80766,-12.72374 25.44401,-21.62142 z m -20.27328,-64.7703 -1.58662,16.62028 -33.23796,-3.16985 1.58662,-16.6168 1.58323,-16.62028 33.23795,3.16985 z m 25.13438,-53.34424 -11.80615,11.80615 -23.60969,-23.60969 23.6123,-23.6123 23.60969,23.60969 z M 712.17711,689.9163 c -15.46872,9.82918 -31.72631,17.92145 -48.49271,24.28201 v 0.92413 309.06116 H 786.72093 V 762.59404 L 745.56379,721.43343 V 992.42516 H 712.17276 Z M 533.45842,729.51047 C 490.7418,724.02689 449.08456,708.31698 412.48323,682.37025 V 1024.178 h 44.52138 V 795.17837 l -12.36715,8.24578 -18.51984,-27.78107 38.32345,-25.54926 h 18.51984 l 38.32085,25.54926 -18.51985,27.78107 -12.36366,-8.24578 V 1024.178 H 533.4619 V 729.51134 Z m 230.28687,-37.131 33.97812,-33.97812 -10.43714,-10.43367 h -0.55039 v -0.55039 l -11.47303,-11.47303 -16.98385,16.98732 -16.98732,16.98732 22.45726,22.45725 z M 981.34234,177.62825 c -8.98986,0 -16.28803,7.29783 -16.28803,16.28455 0,8.98986 7.29782,16.28804 16.28803,16.28804 8.98986,0 16.28803,-7.29783 16.28803,-16.28804 0,-8.98638 -7.29782,-16.28455 -16.28803,-16.28455 z M 223.96233,682.54246 c -8.98986,0 -16.28803,7.29782 -16.28803,16.28803 0,8.98986 7.29782,16.28803 16.28803,16.28803 8.98986,0 16.28803,-7.29782 16.28803,-16.28803 0,-8.98986 -7.29782,-16.28803 -16.28803,-16.28803 z m 693.00023,210.27365 v 131.36009 h 120.97524 v -75.05431 l -20.5282,20.53073 h -19.37566 v 22.76341 H 964.64291 V 940.49559 Z M 315.65264,788.40988 V 1040.867 l -16.69509,16.6951 H 142.52217 L 125.82709,1040.867 V 788.40988 l 16.69508,-16.69508 h 156.43538 z m -78.41078,235.76632 h 45.02061 V 805.10931 l -123.04522,-0.003 v 219.07519 h 44.63271 V 880.94916 l -12.36715,8.24577 -18.51984,-27.78106 38.32345,-25.54578 h 18.51984 l 38.32084,25.54578 -18.51984,27.78106 -12.36366,-8.24577 v 143.23234 z m 3.4179,-568.38068 h -33.39103 v -33.39103 h 33.39103 z m 0,-64.27715 h -33.39103 v -33.38755 h 33.39103 z m 0,-64.27367 h -33.39103 v -33.39103 h 33.39103 z m 0,-64.27715 h -33.39103 v -33.39103 h 33.39103 z m 0,-64.27714 h -33.39103 v -33.39103 h 33.39103 z m -22.35549,-53.24248 v -33.38755 h 33.39103 v 33.38755 z m 64.27715,0 v -33.38755 h 33.39103 v 33.38755 z m 64.27714,0.003 v -33.39104 h 33.38756 v 33.39104 z m 64.27367,0 v -33.39104 h 33.39103 v 33.39104 z m 64.27715,0 v -33.39104 h 33.39103 v 33.39104 z m 64.27367,0 v -33.39104 h 33.39103 v 33.39104 z m 64.27715,0 v -33.39104 h 33.39103 v 33.39104 z m 64.27714,0 v -33.39104 h 33.39103 v 33.39104 z m 64.27715,0 v -33.39104 h 33.38755 v 33.39104 z m 61.11817,-30.23815 h 33.39103 v 33.39104 h -33.39103 z m 0,64.27715 h 33.39103 v 33.38755 h -33.39103 z"
     fill="#007335"
     fill-rule="evenodd"
     id="path2"
     style="stroke-width:0.869762" />
</svg>
