<?xml version="1.0" encoding="UTF-8" standalone="no"?>
<svg
   width="1200pt"
   height="1200pt"
   version="1.1"
   viewBox="0 0 1200 1200"
   id="svg36"
   sodipodi:docname="site.svg"
   inkscape:version="1.1.1 (3bf5ae0d25, 2021-09-20)"
   xmlns:inkscape="http://www.inkscape.org/namespaces/inkscape"
   xmlns:sodipodi="http://sodipodi.sourceforge.net/DTD/sodipodi-0.dtd"
   xmlns="http://www.w3.org/2000/svg"
   xmlns:svg="http://www.w3.org/2000/svg">
  <defs
     id="defs40" />
  <sodipodi:namedview
     id="namedview38"
     pagecolor="#ffffff"
     bordercolor="#666666"
     borderopacity="1.0"
     inkscape:pageshadow="2"
     inkscape:pageopacity="0.0"
     inkscape:pagecheckerboard="0"
     inkscape:document-units="pt"
     showgrid="false"
     inkscape:zoom="0.545625"
     inkscape:cx="800"
     inkscape:cy="800"
     inkscape:window-width="2560"
     inkscape:window-height="1351"
     inkscape:window-x="2551"
     inkscape:window-y="-9"
     inkscape:window-maximized="1"
     inkscape:current-layer="svg36" />
  <g
     fill="#007335"
     id="g34"
     transform="matrix(0.83873509,0,0,0.83873509,92.635256,103.64587)">
    <path
       d="m 281.25,618.75 h 37.5 v 37.5 h -37.5 z"
       id="path2" />
    <path
       d="m 375,412.5 h 75 c 4.9727,0 9.7422,-1.9766 13.258,-5.4922 3.5156,-3.5156 5.4922,-8.2852 5.4922,-13.258 v -75 c 0,-4.9727 -1.9766,-9.7422 -5.4922,-13.258 -3.5156,-3.5156 -8.2852,-5.4922 -13.258,-5.4922 h -75 c -4.9727,0 -9.7422,1.9766 -13.258,5.4922 -3.5156,3.5156 -5.4922,8.2852 -5.4922,13.258 v 75 c 0,4.9727 1.9766,9.7422 5.4922,13.258 3.5156,3.5156 8.2852,5.4922 13.258,5.4922 z m 18.75,-75 h 37.5 V 375 h -37.5 z"
       id="path4" />
    <path
       d="m 525,412.5 h 150 c 4.9727,0 9.7422,-1.9766 13.258,-5.4922 3.5156,-3.5156 5.4922,-8.2852 5.4922,-13.258 v -75 c 0,-4.9727 -1.9766,-9.7422 -5.4922,-13.258 -3.5156,-3.5156 -8.2852,-5.4922 -13.258,-5.4922 H 525 c -4.9727,0 -9.7422,1.9766 -13.258,5.4922 -3.5156,3.5156 -5.4922,8.2852 -5.4922,13.258 v 75 c 0,4.9727 1.9766,9.7422 5.4922,13.258 3.5156,3.5156 8.2852,5.4922 13.258,5.4922 z M 656.25,375 h -37.5 v -37.5 h 37.5 z m -112.5,-37.5 h 37.5 V 375 h -37.5 z"
       id="path6" />
    <path
       d="m 750,412.5 h 75 c 4.9727,0 9.7422,-1.9766 13.258,-5.4922 3.5156,-3.5156 5.4922,-8.2852 5.4922,-13.258 v -75 c 0,-4.9727 -1.9766,-9.7422 -5.4922,-13.258 -3.5156,-3.5156 -8.2852,-5.4922 -13.258,-5.4922 h -75 c -4.9727,0 -9.7422,1.9766 -13.258,5.4922 -3.5156,3.5156 -5.4922,8.2852 -5.4922,13.258 v 75 c 0,4.9727 1.9766,9.7422 5.4922,13.258 3.5156,3.5156 8.2852,5.4922 13.258,5.4922 z m 18.75,-75 h 37.5 V 375 h -37.5 z"
       id="path8" />
    <path
       d="m 356.25,543.75 c 0,4.9727 1.9766,9.7422 5.4922,13.258 3.5156,3.5156 8.2852,5.4922 13.258,5.4922 h 75 c 4.9727,0 9.7422,-1.9766 13.258,-5.4922 3.5156,-3.5156 5.4922,-8.2852 5.4922,-13.258 v -75 c 0,-4.9727 -1.9766,-9.7422 -5.4922,-13.258 -3.5156,-3.5156 -8.2852,-5.4922 -13.258,-5.4922 h -75 c -4.9727,0 -9.7422,1.9766 -13.258,5.4922 -3.5156,3.5156 -5.4922,8.2852 -5.4922,13.258 z m 37.5,-56.25 h 37.5 V 525 h -37.5 z"
       id="path10" />
    <path
       d="m 506.25,543.75 c 0,4.9727 1.9766,9.7422 5.4922,13.258 3.5156,3.5156 8.2852,5.4922 13.258,5.4922 h 150 c 4.9727,0 9.7422,-1.9766 13.258,-5.4922 3.5156,-3.5156 5.4922,-8.2852 5.4922,-13.258 v -75 c 0,-4.9727 -1.9766,-9.7422 -5.4922,-13.258 -3.5156,-3.5156 -8.2852,-5.4922 -13.258,-5.4922 h -150 c -4.9727,0 -9.7422,1.9766 -13.258,5.4922 -3.5156,3.5156 -5.4922,8.2852 -5.4922,13.258 z m 150,-18.75 h -37.5 v -37.5 h 37.5 z m -112.5,-37.5 h 37.5 V 525 h -37.5 z"
       id="path12" />
    <path
       d="m 731.25,543.75 c 0,4.9727 1.9766,9.7422 5.4922,13.258 3.5156,3.5156 8.2852,5.4922 13.258,5.4922 h 75 c 4.9727,0 9.7422,-1.9766 13.258,-5.4922 3.5156,-3.5156 5.4922,-8.2852 5.4922,-13.258 v -75 c 0,-4.9727 -1.9766,-9.7422 -5.4922,-13.258 -3.5156,-3.5156 -8.2852,-5.4922 -13.258,-5.4922 h -75 c -4.9727,0 -9.7422,1.9766 -13.258,5.4922 -3.5156,3.5156 -5.4922,8.2852 -5.4922,13.258 z m 37.5,-56.25 h 37.5 V 525 h -37.5 z"
       id="path14" />
    <path
       d="m 356.25,693.75 c 0,4.9727 1.9766,9.7422 5.4922,13.258 3.5156,3.5156 8.2852,5.4922 13.258,5.4922 h 75 c 4.9727,0 9.7422,-1.9766 13.258,-5.4922 3.5156,-3.5156 5.4922,-8.2852 5.4922,-13.258 v -75 c 0,-4.9727 -1.9766,-9.7422 -5.4922,-13.258 -3.5156,-3.5156 -8.2852,-5.4922 -13.258,-5.4922 h -75 c -4.9727,0 -9.7422,1.9766 -13.258,5.4922 -3.5156,3.5156 -5.4922,8.2852 -5.4922,13.258 z m 37.5,-56.25 h 37.5 V 675 h -37.5 z"
       id="path16" />
    <path
       d="m 506.25,693.75 c 0,4.9727 1.9766,9.7422 5.4922,13.258 3.5156,3.5156 8.2852,5.4922 13.258,5.4922 h 150 c 4.9727,0 9.7422,-1.9766 13.258,-5.4922 3.5156,-3.5156 5.4922,-8.2852 5.4922,-13.258 v -75 c 0,-4.9727 -1.9766,-9.7422 -5.4922,-13.258 -3.5156,-3.5156 -8.2852,-5.4922 -13.258,-5.4922 h -150 c -4.9727,0 -9.7422,1.9766 -13.258,5.4922 -3.5156,3.5156 -5.4922,8.2852 -5.4922,13.258 z m 150,-18.75 h -37.5 v -37.5 h 37.5 z m -112.5,-37.5 h 37.5 V 675 h -37.5 z"
       id="path18" />
    <path
       d="m 731.25,693.75 c 0,4.9727 1.9766,9.7422 5.4922,13.258 3.5156,3.5156 8.2852,5.4922 13.258,5.4922 h 75 c 4.9727,0 9.7422,-1.9766 13.258,-5.4922 3.5156,-3.5156 5.4922,-8.2852 5.4922,-13.258 v -75 c 0,-4.9727 -1.9766,-9.7422 -5.4922,-13.258 -3.5156,-3.5156 -8.2852,-5.4922 -13.258,-5.4922 h -75 c -4.9727,0 -9.7422,1.9766 -13.258,5.4922 -3.5156,3.5156 -5.4922,8.2852 -5.4922,13.258 z m 37.5,-56.25 h 37.5 V 675 h -37.5 z"
       id="path20" />
    <path
       d="m 356.25,843.75 c 0,4.9727 1.9766,9.7422 5.4922,13.258 3.5156,3.5156 8.2852,5.4922 13.258,5.4922 h 75 c 4.9727,0 9.7422,-1.9766 13.258,-5.4922 3.5156,-3.5156 5.4922,-8.2852 5.4922,-13.258 v -75 c 0,-4.9727 -1.9766,-9.7422 -5.4922,-13.258 -3.5156,-3.5156 -8.2852,-5.4922 -13.258,-5.4922 h -75 c -4.9727,0 -9.7422,1.9766 -13.258,5.4922 -3.5156,3.5156 -5.4922,8.2852 -5.4922,13.258 z m 37.5,-56.25 h 37.5 V 825 h -37.5 z"
       id="path22" />
    <path
       d="m 506.25,843.75 c 0,4.9727 1.9766,9.7422 5.4922,13.258 3.5156,3.5156 8.2852,5.4922 13.258,5.4922 h 150 c 4.9727,0 9.7422,-1.9766 13.258,-5.4922 3.5156,-3.5156 5.4922,-8.2852 5.4922,-13.258 v -75 c 0,-4.9727 -1.9766,-9.7422 -5.4922,-13.258 -3.5156,-3.5156 -8.2852,-5.4922 -13.258,-5.4922 h -150 c -4.9727,0 -9.7422,1.9766 -13.258,5.4922 -3.5156,3.5156 -5.4922,8.2852 -5.4922,13.258 z m 150,-18.75 h -37.5 v -37.5 h 37.5 z m -112.5,-37.5 h 37.5 V 825 h -37.5 z"
       id="path24" />
    <path
       d="m 731.25,843.75 c 0,4.9727 1.9766,9.7422 5.4922,13.258 3.5156,3.5156 8.2852,5.4922 13.258,5.4922 h 75 c 4.9727,0 9.7422,-1.9766 13.258,-5.4922 3.5156,-3.5156 5.4922,-8.2852 5.4922,-13.258 v -75 c 0,-4.9727 -1.9766,-9.7422 -5.4922,-13.258 -3.5156,-3.5156 -8.2852,-5.4922 -13.258,-5.4922 h -75 c -4.9727,0 -9.7422,1.9766 -13.258,5.4922 -3.5156,3.5156 -5.4922,8.2852 -5.4922,13.258 z m 37.5,-56.25 h 37.5 V 825 h -37.5 z"
       id="path26" />
    <path
       d="m 1068.8,1029.4 c 21.16,-4.3516 40.176,-15.867 53.836,-32.602 13.664,-16.734 21.137,-37.668 21.164,-59.273 0,-42 -33.242,-168.75 -93.75,-168.75 -60.508,0 -93.75,126.75 -93.75,168.75 0.0273,21.605 7.5,42.539 21.164,59.273 13.66,16.734 32.676,28.25 53.836,32.602 v 95.625 H 918.8 v -862.5 c 4.9727,0 9.7422,-1.9766 13.258,-5.4922 3.5156,-3.5156 5.4922,-8.2852 5.4922,-13.258 v -112.5 c 0,-4.9727 -1.9766,-9.7422 -5.4922,-13.258 -3.5156,-3.5156 -8.2852,-5.4922 -13.258,-5.4922 h -37.5 v -56.25 c 0,-4.9727 -1.9766,-9.7422 -5.4922,-13.258 -3.5156,-3.5156 -8.2852,-5.4922 -13.258,-5.4922 h -525 c -4.9727,0 -9.7422,1.9766 -13.258,5.4922 -3.5156,3.5156 -5.4922,8.2852 -5.4922,13.258 v 56.25 h -37.5 c -4.9727,0 -9.7422,1.9766 -13.258,5.4922 -3.5156,3.5156 -5.4922,8.2852 -5.4922,13.258 v 112.5 c 0,4.9727 1.9766,9.7422 5.4922,13.258 3.5156,3.5156 8.2852,5.4922 13.258,5.4922 v 318.75 h 37.5 v -318.75 h 562.5 v 637.5 h -562.5 v -206.25 h -37.5 v 431.25 h -112.5 V 1029.4 c 21.16,-4.3516 40.176,-15.867 53.836,-32.602 13.664,-16.734 21.137,-37.668 21.164,-59.273 0,-42 -33.242,-168.75 -93.75,-168.75 -60.508,0 -93.75,126.75 -93.75,168.75 0.02734,21.605 7.5,42.539 21.164,59.273 13.66,16.734 32.676,28.25 53.836,32.602 v 95.625 h -93.75 v 37.5 h 1125 v -37.5 h -93.75 z m -75,-91.875 c 0,-44.062 34.18,-131.25 56.25,-131.25 22.07,0 56.25,87.188 56.25,131.25 -0.047,11.594 -3.6758,22.887 -10.391,32.34 -6.7109,9.4492 -16.18,16.598 -27.109,20.461 v -52.801 c 0,-6.6992 -3.5742,-12.887 -9.375,-16.238 -5.8008,-3.3477 -12.949,-3.3477 -18.75,0 -5.8008,3.3516 -9.375,9.5391 -9.375,16.238 v 52.801 c -10.93,-3.8633 -20.398,-11.012 -27.109,-20.461 -6.7148,-9.4531 -10.344,-20.746 -10.391,-32.34 z M 356.3,75.025 h 487.5 v 37.5 H 356.3 Z m -56.25,150 v -75 h 600 v 75 z M 93.8,937.525 c 0,-44.062 34.18,-131.25 56.25,-131.25 22.07,0 56.25,87.188 56.25,131.25 -0.0469,11.594 -3.6758,22.887 -10.391,32.34 -6.7109,9.4492 -16.18,16.598 -27.109,20.461 v -52.801 c 0,-6.6992 -3.5742,-12.887 -9.375,-16.238 -5.8008,-3.3477 -12.949,-3.3477 -18.75,0 -5.8008,3.3516 -9.375,9.5391 -9.375,16.238 v 52.801 C 120.37,986.4627 110.902,979.314 104.191,969.865 97.4762,960.4119 93.847,949.119 93.8,937.525 Z m 787.5,0 v 93.75 H 675.05 v -37.5 c 0,-4.9727 -1.9766,-9.7422 -5.4922,-13.258 -3.5156,-3.5156 -8.2852,-5.4922 -13.258,-5.4922 h -112.5 c -4.9727,0 -9.7422,1.9766 -13.258,5.4922 -3.5156,3.5156 -5.4922,8.2852 -5.4922,13.258 v 37.5 h -206.25 v -93.75 z m -562.5,131.25 h 206.25 v 56.25 H 318.8 Z m 243.75,56.25 v -112.5 h 75 v 112.5 z m 112.5,0 v -56.25 H 881.3 v 56.25 z"
       id="path28" />
    <path
       d="m 1050,243.75 c -13.262,0.0391 -26.277,3.5977 -37.715,10.305 -11.441,6.7109 -20.895,16.332 -27.402,27.891 -18.82,2.9805 -34.852,15.289 -42.594,32.699 -7.7422,17.41 -6.1406,37.555 4.2461,53.527 10.391,15.973 28.16,25.598 47.215,25.578 h 112.5 c 19.055,0.0195 36.824,-9.6055 47.215,-25.578 10.387,-15.973 11.988,-36.117 4.2461,-53.527 -7.7422,-17.41 -23.773,-29.719 -42.594,-32.699 -6.5078,-11.559 -15.961,-21.18 -27.402,-27.891 -11.438,-6.707 -24.453,-10.266 -37.715,-10.305 z m 75,93.75 c 0,4.9727 -1.9766,9.7422 -5.4922,13.258 -3.5156,3.5156 -8.2852,5.4922 -13.258,5.4922 h -112.5 c -6.6992,0 -12.887,-3.5742 -16.238,-9.375 -3.3477,-5.8008 -3.3477,-12.949 0,-18.75 3.3516,-5.8008 9.5391,-9.375 16.238,-9.375 h 3.4492 c 3.8711,0 7.6484,-1.1992 10.809,-3.4336 3.1641,-2.2305 5.5586,-5.3867 6.8555,-9.0352 3.3906,-9.8047 10.727,-17.746 20.227,-21.902 9.5039,-4.1602 20.316,-4.1602 29.82,0 9.5,4.1562 16.836,12.098 20.227,21.902 1.2969,3.6484 3.6914,6.8047 6.8555,9.0352 3.1602,2.2344 6.9375,3.4336 10.809,3.4336 h 3.4492 c 4.9727,0 9.7422,1.9766 13.258,5.4922 3.5156,3.5156 5.4922,8.2852 5.4922,13.258 z"
       id="path30" />
    <path
       d="m 93.75,506.25 h 112.5 c 19.055,0.0195 36.824,-9.6055 47.215,-25.578 10.387,-15.973 11.988,-36.117 4.2461,-53.527 -7.7422,-17.41 -23.773,-29.719 -42.594,-32.699 -8.6719,-15.516 -22.602,-27.426 -39.277,-33.582 -16.676,-6.1562 -35.004,-6.1562 -51.68,0 -16.676,6.1562 -30.605,18.066 -39.277,33.582 -18.82,2.9805 -34.852,15.289 -42.594,32.699 -7.7422,17.41 -6.1406,37.555 4.2461,53.527 10.391,15.973 28.16,25.598 47.215,25.578 z m 0,-75 h 3.4492 c 3.8711,0 7.6484,-1.1992 10.809,-3.4336 3.1641,-2.2305 5.5586,-5.3867 6.8555,-9.0352 3.3906,-9.8047 10.727,-17.746 20.227,-21.902 9.5039,-4.1602 20.316,-4.1602 29.82,0 9.5,4.1562 16.836,12.098 20.227,21.902 1.2969,3.6484 3.6914,6.8047 6.8555,9.0352 3.1602,2.2344 6.9375,3.4336 10.809,3.4336 h 3.4492 c 6.6992,0 12.887,3.5742 16.238,9.375 3.3477,5.8008 3.3477,12.949 0,18.75 -3.3516,5.8008 -9.5391,9.375 -16.238,9.375 h -112.5 c -6.6992,0 -12.887,-3.5742 -16.238,-9.375 -3.3477,-5.8008 -3.3477,-12.949 0,-18.75 3.3516,-5.8008 9.5391,-9.375 16.238,-9.375 z"
       id="path32" />
  </g>
</svg>
